<svg xmlns="http://www.w3.org/2000/svg" width="293.408" height="281.257" viewBox="0 0 293.408 281.257"><g transform="translate(-34.59 -57.008)"><g transform="translate(44.98 57.008)"><path d="M315.238,115.068c-8.288-20.758-22.372-39.916-42.123-50.4s-45.576-10.761-63.5,2.588c-27.371,20.384-31.328,65.891-63.147,78.266-13.437,5.23-28.563,2.813-42.763,5.292-32.643,5.721-56.69,39.862-53.591,72.845s27.814,63.759,59.769,72.606c72.981,20.213,129.991,6.79,170.616-30.184S335.615,166.1,315.238,115.068Z" transform="translate(-49.845 -57.008)" fill="#ebebeb"/></g><g transform="translate(34.59 333.841)"><path d="M328,463.667c0,.1-65.687.177-146.7.177s-146.711-.075-146.711-.177,65.673-.177,146.711-.177S328,463.572,328,463.667Z" transform="translate(-34.59 -463.49)" fill="#263238"/></g><g transform="translate(36.289 90.608)"><path d="M137.012,124.52l.054,2.724s1.11,21.112,1.042,24.286-10.658,21.283-10.658,21.283l6.5,10.6,15.528-27.923-3.719-29.966-.1-.742" transform="translate(-65.907 -112.141)" fill="#ffbe9d"/><path d="M148.263,116.129l-2.091-7.689L138,113.166c0,.681,2.445,6.225,2.445,6.225l1.417,1.471s7.1-.749,7.253-.824A32.893,32.893,0,0,0,148.263,116.129Z" transform="translate(-69.272 -107.012)" fill="#ffbe9d"/><path d="M149.361,108.755a.6.6,0,0,1,.082.163c.313.831,1.226,4.583.81,4.863s-1.818.347-2.043-.123-1-4.767-1-4.767-.082-.681.994-1.137C148.871,107.495,149.361,108.755,149.361,108.755Z" transform="translate(-72.209 -106.782)" fill="#ffbe9d"/><path d="M145.562,107.634a.616.616,0,0,1,.082.157c.313.838,1.226,4.583.81,4.863s-1.818.347-2.043-.123-1-4.767-1-4.767-.075-.681.994-1.131C145.071,106.367,145.562,107.634,145.562,107.634Z" transform="translate(-70.997 -106.424)" fill="#ffbe9d"/><path d="M142.088,107.514a.4.4,0,0,1,.082.163c.313.831,1.219,4.583.8,4.863s-1.812.347-2.043-.123-1-4.767-1-4.767-.082-.681.994-1.131C141.6,106.227,142.088,107.514,142.088,107.514Z" transform="translate(-69.887 -106.386)" fill="#ffbe9d"/><path d="M138.648,107.376a.4.4,0,0,1,.082.163c.313.831,1.219,4.583.8,4.863s-1.818.347-2.043-.123-1-4.767-1-4.767-.082-.681.994-1.131C138.158,106.11,138.648,107.376,138.648,107.376Z" transform="translate(-68.79 -106.344)" fill="#ffbe9d"/><path d="M147.87,113.13a14.8,14.8,0,0,0-.81-3.65,14.8,14.8,0,0,0,.81,3.65Z" transform="translate(-72.162 -107.344)" fill="#eb996e"/><path d="M144.467,113.244a14.213,14.213,0,0,0-.456-2.636,13.927,13.927,0,0,0-.681-2.588,15.84,15.84,0,0,0,.456,2.636,15.561,15.561,0,0,0,.681,2.588Z" transform="translate(-70.972 -106.878)" fill="#eb996e"/><g transform="translate(70.09 1.53)" opacity="0.78"><path d="M141.137,113.82a15.863,15.863,0,0,0-.456-2.642A15.562,15.562,0,0,0,140,108.59a14.3,14.3,0,0,0,.456,2.642A14.131,14.131,0,0,0,141.137,113.82Z" transform="translate(-140 -108.59)" fill="#eb996e"/></g><path d="M142.123,119.631l-2.479-2a5.4,5.4,0,0,1-1.968-3.521l-.136-1.056,7.492-1.512s0,2.785-2.111,2.82l2.636,1.362Z" transform="translate(-69.125 -108.001)" fill="#ffbe9d"/><path d="M145.217,116.145a7.759,7.759,0,0,0-.647-.722,3.473,3.473,0,0,0-2.275-.919h-.8l.756-.279,1.73-.64h0a2.043,2.043,0,0,0,1.076-1.934,1.021,1.021,0,0,0-.034-.177l.211.116c-2.091.518-3.984.953-5.367,1.192-.681.123-1.253.2-1.648.245a2.159,2.159,0,0,1-.606,0,21.756,21.756,0,0,1,2.2-.518c1.362-.293,3.242-.77,5.333-1.287l.163-.041.048.157a1.7,1.7,0,0,1,.054.238,2.1,2.1,0,0,1-.32,1.362,2.976,2.976,0,0,1-.933.892h0l-1.75.6-.048-.286a3.48,3.48,0,0,1,2.4,1.1,1.818,1.818,0,0,1,.463.906Z" transform="translate(-69.148 -107.886)" fill="#eb996e"/><path d="M148.106,111.868c.061,0,.184.341.565.681a.64.64,0,0,0,.742.109.974.974,0,0,0,.334-.926c-.089-.844-.136-1.634-.211-2.179a3.674,3.674,0,0,1-.116-.913c.054-.02.211.3.361.865a16.776,16.776,0,0,1,.32,2.207,1.253,1.253,0,0,1-.518,1.226.906.906,0,0,1-1.083-.2,1.635,1.635,0,0,1-.354-.613C148.1,111.97,148.085,111.881,148.106,111.868Z" transform="translate(-72.492 -107.076)" fill="#eb996e"/><path d="M107.866,149.657a6.437,6.437,0,0,1,4.767,2.316c1.274,1.321,2.213,2.888,3.514,4.161a11.776,11.776,0,0,1,2.724,2.983c.933,1.948.15,4.461,1.362,6.272.681,1.015,1.832,1.614,2.52,2.615a6.417,6.417,0,0,1,.6,4.42,5.156,5.156,0,0,1-1.069,2.928,5.04,5.04,0,0,1-2.145,1.185,30.647,30.647,0,0,1-18.388.4" transform="translate(-57.71 -120.156)" fill="#263238"/><path d="M92.366,162.565a9.364,9.364,0,0,1,8.411-10.488,9.535,9.535,0,0,1,10.175,8.173,98.068,98.068,0,0,1,1.2,10.325c-.061,4.808-2.874,6.674-4.011,7.24a6.129,6.129,0,0,1-1.267.313h0v.034l1.069,5.516c.484,3.616-1.532,6.81-5.142,7.362s-6.449-2.247-7-5.864Z" transform="translate(-54.694 -120.921)" fill="#ffbe9d"/><path d="M117.061,167.976c-.075.109-.681-.232-1.526-.109s-1.362.613-1.451.524,0-.225.252-.456a2.118,2.118,0,0,1,1.144-.545,2.043,2.043,0,0,1,1.233.211C116.992,167.758,117.1,167.922,117.061,167.976Z" transform="translate(-61.633 -125.808)" fill="#263238"/><path d="M106.436,170.278c-.082.109-.681-.232-1.526-.109s-1.362.613-1.457.531,0-.232.252-.456a2.043,2.043,0,0,1,1.151-.545,1.982,1.982,0,0,1,1.233.2C106.361,170.06,106.477,170.223,106.436,170.278Z" transform="translate(-58.241 -126.543)" fill="#263238"/><path d="M111.362,173.052a5.783,5.783,0,0,1,1.287-.429c.2-.054.4-.123.409-.266a1.1,1.1,0,0,0-.232-.6l-.844-1.492A28.146,28.146,0,0,1,110,166.33a26.963,26.963,0,0,1,2.3,3.766c.286.524.558,1.028.824,1.505a1.246,1.246,0,0,1,.225.8.545.545,0,0,1-.3.354,1.525,1.525,0,0,1-.341.1A5.005,5.005,0,0,1,111.362,173.052Z" transform="translate(-60.341 -125.477)" fill="#263238"/><path d="M110.2,189.886a13.063,13.063,0,0,1-7.369-1.076s1.839,3.97,7.662,2.561Z" transform="translate(-58.054 -132.647)" fill="#eb996e"/><path d="M110.8,178.966a1.478,1.478,0,0,0-1.362-.347,1.362,1.362,0,0,0-.851.627.872.872,0,0,0,.075.981,1.015,1.015,0,0,0,1.11.116,3.228,3.228,0,0,0,.947-.776.96.96,0,0,0,.2-.272.266.266,0,0,0-.048-.3" transform="translate(-59.853 -129.382)" fill="#eb996e"/><path d="M108.551,177.54c.129,0,.259.858,1.1,1.362s1.778.279,1.8.4-.184.2-.579.272a2.207,2.207,0,0,1-1.491-.293,1.907,1.907,0,0,1-.872-1.158C108.422,177.778,108.49,177.547,108.551,177.54Z" transform="translate(-59.853 -129.052)" fill="#263238"/><path d="M105.282,166.477c-.048.238-.879.245-1.818.5s-1.669.627-1.825.443c-.068-.082,0-.313.313-.572a3.276,3.276,0,0,1,2.772-.722C105.119,166.219,105.316,166.368,105.282,166.477Z" transform="translate(-57.667 -125.392)" fill="#263238"/><path d="M115.969,164.269c-.116.2-.681.1-1.362.184s-1.226.306-1.362.129,0-.286.211-.5a2,2,0,0,1,1.076-.463,1.893,1.893,0,0,1,1.151.211C115.907,163.99,116.016,164.167,115.969,164.269Z" transform="translate(-61.359 -124.608)" fill="#263238"/><path d="M113.238,157.867c-.994,1.519-4.148.579-6.054-.463A4.522,4.522,0,0,1,101,156.131a2.489,2.489,0,0,1-4.086-.633,4.993,4.993,0,0,1,.756-5.087A7.09,7.09,0,0,1,102,148.053a10.045,10.045,0,0,1,10.216,4.2,6.712,6.712,0,0,1,1.056,5.619" transform="translate(-56.04 -119.588)" fill="#263238"/><path d="M93.025,151.39c-3.575-.681-7.022,2.881-7.383,5.448-.62,4.427,0,4.978-.831,7.1-.524,1.362-2.343,2.792-3.058,4.216a8.575,8.575,0,0,0-.232,5.734c.449,1.362,2.3,5.2,2.3,5.2a50.869,50.869,0,0,0,8.03-.865,4.543,4.543,0,0,0,1.921-.9c.518-.47-.552-2.091-.449-2.779.279-1.961,1.743-3.1,1.362-5.033-.558-2.568-2.581-2.724-2.54-5.333,0-1.362,2.1-3.405,2.3-4.767s.994-6.2-1.362-7.982" transform="translate(-51.137 -120.684)" fill="#263238"/><path d="M88.13,181.557s-.259-.3-.681-.844a11.755,11.755,0,0,1-1.58-2.513,8.316,8.316,0,0,1-.776-4.263,6.756,6.756,0,0,1,2.356-4.631c.736-.593,1.573-1.042,2.288-1.641a4.5,4.5,0,0,0,1.491-2.22,14.718,14.718,0,0,0,.443-2.363,10.9,10.9,0,0,1,.4-2.009,3.507,3.507,0,0,1,1.791-2.193,2.936,2.936,0,0,1,1.056-.218.79.79,0,0,0-.286-.041,2.118,2.118,0,0,0-.817.15A3.521,3.521,0,0,0,91.842,161a10.249,10.249,0,0,0-.456,2.043,14.139,14.139,0,0,1-.463,2.309,4.127,4.127,0,0,1-1.41,2.043c-.681.572-1.526,1.015-2.3,1.641a6.974,6.974,0,0,0-2.438,4.842,8.452,8.452,0,0,0,.858,4.386,10.9,10.9,0,0,0,1.689,2.5c.238.259.443.456.579.579A1.11,1.11,0,0,0,88.13,181.557Z" transform="translate(-52.289 -123.017)" fill="#455a64"/><path d="M125.114,179.325a1.6,1.6,0,0,0,.136-.191,6,6,0,0,0,.3-.6,6.4,6.4,0,0,0,.463-2.411,6.511,6.511,0,0,0-1-3.5,15.285,15.285,0,0,0-1.362-1.682,4.488,4.488,0,0,1-1.062-1.921c-.32-1.492.17-3,.068-4.386a7.342,7.342,0,0,0-.981-3.507,6.061,6.061,0,0,0-1.662-1.8,5.84,5.84,0,0,0-.572-.347l-.211-.1a8.468,8.468,0,0,0,.681.538,6.259,6.259,0,0,1,1.546,1.825,7.294,7.294,0,0,1,.879,3.405,13.45,13.45,0,0,1-.129,2.111,7.26,7.26,0,0,0,.048,2.329,4.767,4.767,0,0,0,1.131,2.043,16.252,16.252,0,0,1,1.362,1.641,6.347,6.347,0,0,1,1.022,3.344,6.811,6.811,0,0,1-.354,2.37C125.244,179.032,125.087,179.311,125.114,179.325Z" transform="translate(-63.285 -123.1)" fill="#455a64"/><path d="M105.66,148.854a16.625,16.625,0,0,1,2.3.129,8.384,8.384,0,0,1,4.767,2.574,10.427,10.427,0,0,1,2.3,4.965,13.245,13.245,0,0,1,.116,2.309,2.138,2.138,0,0,0,.129-.62,7.369,7.369,0,0,0,0-1.716,9.957,9.957,0,0,0-2.282-5.149,8.241,8.241,0,0,0-4.972-2.581,7.063,7.063,0,0,0-1.723,0A2.044,2.044,0,0,0,105.66,148.854Z" transform="translate(-58.957 -119.857)" fill="#455a64"/><path d="M108.731,156.12a1.737,1.737,0,0,0,.075-.538,5.449,5.449,0,0,0-.157-1.485,6.129,6.129,0,0,0-7.662-4.509,5.5,5.5,0,0,0-1.362.579c-.3.191-.449.313-.436.334a10.577,10.577,0,0,1,1.859-.681,6.089,6.089,0,0,1,7.4,4.352A11.857,11.857,0,0,1,108.731,156.12Z" transform="translate(-56.893 -120.061)" fill="#455a64"/><path d="M85.459,217.589s2.356,5.367,2.22,7.907-2.568,10.795-2.568,10.795l28.8,2.69.129-6.661-.865-27.4,16.059-24.429-12.15-7.042-11.816,16.039-2.99-1.158-12.94,1.635v2.247l-.368.041a26.493,26.493,0,0,0-8.05,3.153,13.485,13.485,0,0,0-6.17,13.669c.524,3.269,1.546,7.24,3.507,9.535C82.034,223.01,85.459,217.589,85.459,217.589Z" transform="translate(-49.04 -127.747)" fill="#1e55a2"/><path d="M84.029,213.842s-1.471-8.363-1.062-8.969c.5-.715,6.558-3.317,6.647-3.051l1.328,9.194Z" transform="translate(-51.696 -136.791)" fill="#fafafa"/><path d="M120.278,220.16,119.59,236.2h6.054V220.16Z" transform="translate(-63.4 -142.646)" fill="#fafafa"/><path d="M105.482,231.911a1.5,1.5,0,0,1,.341,0h1.042l3.984-.061h.116v.123c.041,3.848.061,9.6.061,16.039v.177H104.61v-.177c.225-4.624.429-8.642.572-11.578.082-1.362.143-2.5.191-3.317a7.993,7.993,0,0,1,.061-.879,1.151,1.151,0,0,1,0-.286,2.519,2.519,0,0,1,0,.327v.913c0,.831-.054,1.961-.1,3.364-.1,2.881-.245,6.858-.409,11.442l-.17-.177h6.054l-.177.177c0-6.436,0-12.191.061-16.039l.116.116-3.9-.123H105.85Z" transform="translate(-58.622 -146.374)" fill="#fafafa"/><path d="M137.188,199.862l-6.388-4.039,5.612-8.193,6.545,3.8Z" transform="translate(-66.976 -132.27)" fill="#fafafa"/><g transform="translate(45.075 68.082)" opacity="0.4"><rect width="18.749" height="6.082" fill="#fff"/></g><path d="M129.781,224.048a1.594,1.594,0,0,1,0-.558c.048-.361.109-.879.163-1.512a28.214,28.214,0,0,0,0-5,27.757,27.757,0,0,0-.913-4.917c-.341-1.233-.62-1.982-.565-2s.116.163.259.5a14.753,14.753,0,0,1,.552,1.43,22.925,22.925,0,0,1,1.022,4.958,22.223,22.223,0,0,1-.1,5.06,14.346,14.346,0,0,1-.279,1.505A1.757,1.757,0,0,1,129.781,224.048Z" transform="translate(-66.229 -139.424)" fill="#263238"/><path d="M139.62,177.36a9.107,9.107,0,0,1-1.1,1.41c-.681.838-1.709,1.982-2.833,3.235l-1.2,1.321-.1.116-.123-.082c-1.028-.681-1.907-1.314-2.52-1.757a4.672,4.672,0,0,1-.947-.763,5.735,5.735,0,0,1,1.062.586c.647.4,1.553.967,2.595,1.648h-.218l1.185-1.362c1.124-1.253,2.152-2.363,2.908-3.16A9.446,9.446,0,0,1,139.62,177.36Z" transform="translate(-66.976 -128.995)" fill="#fafafa"/><path d="M147.617,182.719a11.641,11.641,0,0,1-1.886-.872c-1.151-.579-2.724-1.41-4.447-2.336s-3.276-1.791-4.393-2.425a12.769,12.769,0,0,1-1.771-1.1,11.83,11.83,0,0,1,1.893.872c1.144.586,2.724,1.41,4.44,2.336s3.276,1.791,4.393,2.425A12.261,12.261,0,0,1,147.617,182.719Z" transform="translate(-68.353 -128.558)" fill="#263238"/><path d="M54.185,431.12,51.1,445.068l-5.625,10.338a1.464,1.464,0,0,0,.681,2.043h0a1.457,1.457,0,0,0,1.362-.061c2.615-1.512,12.211-7.124,12.381-8.173.2-1.2,4.236-14.506,4.236-14.506Z" transform="translate(-39.702 -209.932)" fill="#1e55a2"/><g transform="translate(6.446 238.35)" opacity="0.6"><path d="M46.55,465.473l13.927-9.153-.143.586a2.241,2.241,0,0,1-.824,1.24c-1.137.817-4.318,3.017-11.578,7.253a1.464,1.464,0,0,1-1.362.048Z" transform="translate(-46.55 -456.32)" fill="#fff"/></g><g transform="translate(18.103 233.132)" opacity="0.6"><path d="M64.214,448.7a.885.885,0,0,0-.511,1.069.844.844,0,0,0,1.049.511.933.933,0,0,0,.538-1.131.892.892,0,0,0-1.158-.415" transform="translate(-63.666 -448.658)" fill="#fff"/></g><path d="M52.232,461.007a4.358,4.358,0,0,0-.947-1.362,4.44,4.44,0,0,0-1.526-.681c0-.041.2-.1.538-.068a2.3,2.3,0,0,1,1.185.524,2.24,2.24,0,0,1,.729,1.083C52.3,460.789,52.273,461.007,52.232,461.007Z" transform="translate(-41.127 -218.788)" fill="#263238"/><path d="M50.15,463.674c-.082.041-.415-.518-1.083-.9a10.973,10.973,0,0,0-1.308-.5,1.628,1.628,0,0,1,1.471.232C49.967,462.946,50.232,463.654,50.15,463.674Z" transform="translate(-40.49 -219.842)" fill="#263238"/><path d="M55.351,458a15.668,15.668,0,0,0-1.58-1.5,14.885,14.885,0,0,0-1.941-.988A4.018,4.018,0,0,1,55.351,458Z" transform="translate(-41.788 -217.712)" fill="#263238"/><path d="M57.172,452.482c-.054.075-.742-.436-1.73-.715s-1.839-.238-1.852-.327a3.48,3.48,0,0,1,3.582,1.042Z" transform="translate(-42.349 -216.359)" fill="#263238"/><path d="M58.586,446.515a7.173,7.173,0,0,0-1.791-.8,7.218,7.218,0,0,0-1.955,0c0-.034.184-.17.545-.279a3.174,3.174,0,0,1,1.478-.041,3.249,3.249,0,0,1,1.362.627C58.49,446.284,58.613,446.467,58.586,446.515Z" transform="translate(-42.748 -214.465)" fill="#263238"/><path d="M57.154,443.516a1.11,1.11,0,0,1,.109-.524,3.732,3.732,0,0,1,.756-1.274,1.641,1.641,0,0,1,.885-.606.6.6,0,0,1,.613.286.988.988,0,0,1,.061.681,2.043,2.043,0,0,1-2.213,1.43,2.4,2.4,0,0,1-2-1.784.858.858,0,0,1,.129-.681.565.565,0,0,1,.681-.15,2.077,2.077,0,0,1,.8.681,4.257,4.257,0,0,1,.681,1.314,1.212,1.212,0,0,1,.1.531,6.422,6.422,0,0,0-.953-1.7,1.8,1.8,0,0,0-.681-.593.293.293,0,0,0-.361.082.545.545,0,0,0-.054.449,2.138,2.138,0,0,0,1.743,1.526,1.791,1.791,0,0,0,1.9-1.185.681.681,0,0,0,0-.477.313.313,0,0,0-.334-.163,1.478,1.478,0,0,0-.756.5A5.53,5.53,0,0,0,57.154,443.516Z" transform="translate(-42.91 -213.032)" fill="#263238"/><g transform="translate(13.706 221.188)" opacity="0.3"><path d="M57.625,432.632l-.415,1.989,9.855,2.888.844-2.792-9.923-3.6Z" transform="translate(-57.21 -431.12)"/></g><path d="M119.3,438.49l-.838,11.149s11.053,4.59,11.1,6.667l-21.678-.838.586-17.428Z" transform="translate(-59.668 -212.14)" fill="#1e55a2"/><g transform="translate(51.474 236.3)" opacity="0.6"><path d="M113.322,453.31a.885.885,0,0,0-.647.988.851.851,0,0,0,.967.681.933.933,0,0,0,.681-1.049.892.892,0,0,0-1.09-.572" transform="translate(-112.665 -453.31)" fill="#fff"/></g><g transform="translate(48.222 241.571)" opacity="0.6"><path d="M107.89,462.807l.129-1.757,20.738,1.464s.947.456.81,1.13Z" transform="translate(-107.89 -461.05)" fill="#fff"/></g><path d="M122.994,454.884c0,.1-.538.129-1.069.45s-.831.756-.926.715.089-.681.742-1.028S123.035,454.789,122.994,454.884Z" transform="translate(-63.842 -217.481)" fill="#263238"/><path d="M126.528,456.417c0,.1-.443.266-.824.681s-.5.9-.606.892-.143-.613.334-1.137S126.528,456.314,126.528,456.417Z" transform="translate(-65.135 -217.985)" fill="#263238"/><path d="M128.947,459.673c-.1,0-.225-.518.068-1.083s.8-.783.844-.681-.279.388-.511.858S129.036,459.666,128.947,459.673Z" transform="translate(-66.349 -218.469)" fill="#263238"/><path d="M122.752,450.972c-.048.1-.531-.075-1.131-.054s-1.069.191-1.124.1.409-.456,1.117-.463S122.807,450.891,122.752,450.972Z" transform="translate(-63.688 -216.13)" fill="#263238"/><g transform="translate(48.671 227.739)" opacity="0.3"><path d="M119.345,441.557l-.143,1.989-10.652-.511.068-2.3Z" transform="translate(-108.55 -440.74)"/></g><path d="M122.484,446.992a2.043,2.043,0,0,1-1.09-.048,4.971,4.971,0,0,1-1.124-.395,5.163,5.163,0,0,1-.606-.354,1.226,1.226,0,0,1-.32-.266.456.456,0,0,1,0-.565.572.572,0,0,1,.477-.225,1.362,1.362,0,0,1,.4.068,3.878,3.878,0,0,1,.681.259,3.774,3.774,0,0,1,.974.681c.484.49.64.892.606.913s-.279-.313-.776-.715a4.59,4.59,0,0,0-.953-.586,4.085,4.085,0,0,0-.613-.211c-.225-.075-.422-.082-.484,0s0,.054,0,.123a.987.987,0,0,0,.232.191,5.073,5.073,0,0,0,.558.354,6.272,6.272,0,0,0,1.035.443,7.29,7.29,0,0,1,1,.334Z" transform="translate(-63.29 -214.404)" fill="#263238"/><path d="M123.662,446.472a1.737,1.737,0,0,1-.245-1.056,3.616,3.616,0,0,1,.2-1.185,3.406,3.406,0,0,1,.3-.647.913.913,0,0,1,.681-.524.511.511,0,0,1,.443.32,1.417,1.417,0,0,1,.1.4,2.629,2.629,0,0,1,0,.736,2.554,2.554,0,0,1-.511,1.1c-.443.545-.892.681-.9.62a5.448,5.448,0,0,0,.681-.776,2.663,2.663,0,0,0,.381-1.008,2.146,2.146,0,0,0,0-.627c0-.232-.1-.422-.191-.4a.788.788,0,0,0-.388.341,3.3,3.3,0,0,0-.293.579,3.985,3.985,0,0,0-.252,1.076C123.628,446.057,123.723,446.458,123.662,446.472Z" transform="translate(-64.618 -213.741)" fill="#263238"/><path d="M81.59,214.583l5.605.313a28.108,28.108,0,0,0,1.587,4.6,93.312,93.312,0,0,0,8.888-22.556c-.129-.422-.279-.885-.463-1.41a5.932,5.932,0,0,1,.068-2.37c.157-.94.415-2.207.5-2.792.238-1.784.524-2.043,1.151-1.859.844.272-.347,5.006.341,5.108.375.054.831-1.566.96-2.894s.736-5.448,1.178-5.7c.681-.4,1.205.232,1.042,1.56s-.375,5.339.334,5.394,1.274-6.736,1.274-6.736-.109-1.471.681-1.437c1.471.061.32,7.219.2,7.893-.089.47.681.558.742.048s.422-6.81,1.921-6.736c1.144.041-.892,5.9-.245,7.253s1.09-4.611,2.186-4.529c.409,0,.681.109-.041,3.487a75.7,75.7,0,0,1-2.622,7.921c-1.737,9.364-9.358,39.324-21.3,33.841-6.688-3.072-9.807-18.266-9.807-18.266Z" transform="translate(-49.42 -131.048)" fill="#ffbe9d"/><path d="M116.846,199.019a.858.858,0,0,1,.061-.2c.048-.15.116-.347.2-.586.184-.545.449-1.3.783-2.261s.742-2.186,1.151-3.6a23.483,23.483,0,0,0,.531-2.3c.075-.409.157-.831.2-1.267a4.084,4.084,0,0,0,0-.647c0-.225-.048-.4-.225-.409s-.306.1-.429.293a3.582,3.582,0,0,0-.286.633c-.157.449-.286.926-.409,1.417s-.238.994-.388,1.505a2.315,2.315,0,0,1-.341.79.272.272,0,0,1-.375.048.681.681,0,0,1-.157-.218,1.744,1.744,0,0,1-.123-.436,14.486,14.486,0,0,1,.341-3.405c.1-.572.2-1.151.279-1.737a7.751,7.751,0,0,0,.068-.885c0-.266,0-.633-.157-.681s-.409.109-.545.354a3.528,3.528,0,0,0-.375.81,12.986,12.986,0,0,0-.443,1.825c-.109.633-.191,1.274-.266,1.921a8.864,8.864,0,0,1-.1.981l-.041.5a.742.742,0,0,1-.225.572.572.572,0,0,1-.681,0,.49.49,0,0,1-.211-.32.545.545,0,0,1,0-.184v-.123c.048-.334.1-.681.15-1q.143-1.022.245-2.043t.123-2.043a6.906,6.906,0,0,0-.2-2.043.681.681,0,0,0-.286-.415.361.361,0,0,0-.388.123,1.88,1.88,0,0,0-.211,1.11h0c-.123,1.362-.272,2.663-.463,3.957a18.57,18.57,0,0,1-.368,1.927,4.278,4.278,0,0,1-.15.477.981.981,0,0,1-.32.49.354.354,0,0,1-.422-.089.79.79,0,0,1-.15-.259,2.383,2.383,0,0,1-.129-.49,18.163,18.163,0,0,1-.034-3.746,10.393,10.393,0,0,0,.089-1.75.947.947,0,0,0-.313-.647.347.347,0,0,0-.293-.048.559.559,0,0,0-.163.068.232.232,0,0,0-.082.1,8.31,8.31,0,0,0-.449,1.594c-.109.545-.2,1.09-.293,1.628s-.163,1.062-.232,1.587-.109,1.042-.211,1.553a7.764,7.764,0,0,1-.4,1.478,2,2,0,0,1-.163.347c-.082.109-.123.252-.341.32a.293.293,0,0,1-.293-.123.878.878,0,0,1-.089-.211,2.648,2.648,0,0,1-.048-.381c0-.974.136-1.866.184-2.724a6.259,6.259,0,0,0,0-1.24.43.43,0,0,0-.654-.443,1.648,1.648,0,0,0-.422.933c-.082.354-.116.681-.184,1.042-.238,1.362-.49,2.513-.606,3.46a4.386,4.386,0,0,0,0,1.26c.082.341.2.647.259.885l.163.558a.558.558,0,0,1,.048.191.681.681,0,0,1-.075-.184l-.2-.538c-.082-.245-.2-.524-.3-.9a4.474,4.474,0,0,1,0-1.287c.1-.967.334-2.118.552-3.473.061-.334.1-.681.177-1.056a3.324,3.324,0,0,1,.15-.552.981.981,0,0,1,.354-.524.736.736,0,0,1,.681,0c.272.157.279.415.327.613a6.81,6.81,0,0,1,0,1.287c-.041.872-.177,1.784-.157,2.724a2.383,2.383,0,0,0,.041.327c0,.109.082.15.068.129s.109-.1.157-.184a3.343,3.343,0,0,0,.15-.313,8.459,8.459,0,0,0,.375-1.43c.1-.49.123-1.008.2-1.532s.136-1.062.225-1.6.177-1.09.286-1.641a7.818,7.818,0,0,1,.484-1.689.5.5,0,0,1,.2-.218,1.049,1.049,0,0,1,.238-.1.681.681,0,0,1,.545.089,1.26,1.26,0,0,1,.47.872,3.562,3.562,0,0,1,0,.933c0,.293-.054.592-.075.892a18.245,18.245,0,0,0,0,3.657,2.546,2.546,0,0,0,.109.422.579.579,0,0,0,.089.15h0v.007a1.117,1.117,0,0,0,.163-.313c.048-.143.1-.293.136-.443.15-.606.259-1.246.354-1.887.191-1.287.334-2.6.456-3.936h0a2.213,2.213,0,0,1,.286-1.362.681.681,0,0,1,.8-.232.974.974,0,0,1,.49.627,7.089,7.089,0,0,1,.225,2.152c0,.681-.061,1.4-.129,2.1s-.15,1.362-.245,2.043c-.048.341-.1.681-.15,1.008a.488.488,0,0,0,0,.286.252.252,0,0,0,.266,0c.075-.048.082-.15.1-.334l.048-.5c0-.327.068-.681.1-.981.075-.681.163-1.308.272-1.941a13.507,13.507,0,0,1,.456-1.88,4.032,4.032,0,0,1,.415-.885,1.362,1.362,0,0,1,.368-.381.545.545,0,0,1,.906.422,2.935,2.935,0,0,1,.034.484,8.094,8.094,0,0,1-.082.919c-.075.6-.184,1.178-.286,1.75a14.24,14.24,0,0,0-.354,3.31,1.083,1.083,0,0,0,.1.347.511.511,0,0,0,.068.116h0v-.034a2.281,2.281,0,0,0,.279-.681c.15-.5.266-1,.395-1.491s.259-.974.429-1.437a3.834,3.834,0,0,1,.313-.681.981.981,0,0,1,.259-.3.524.524,0,0,1,.2-.1.579.579,0,0,1,.218,0,.436.436,0,0,1,.361.266,1.11,1.11,0,0,1,.075.375,3.773,3.773,0,0,1-.041.681c-.048.449-.136.872-.218,1.287a21.893,21.893,0,0,1-.565,2.3c-.422,1.417-.851,2.615-1.205,3.589s-.681,1.737-.844,2.241c-.1.238-.177.429-.232.579A.541.541,0,0,0,116.846,199.019Z" transform="translate(-59.375 -130.937)" fill="#eb996e"/><path d="M75.7,227.6c1.083,3.827,3.2,9.739,5.448,15.977a1.083,1.083,0,0,0,2,.1l5.585-11.816s-1.362-9.7-1.233-9.364-11.523,1.26-11.523,1.26Z" transform="translate(-49.401 -143.388)" fill="#1e55a2"/><path d="M95.88,227.869a1.308,1.308,0,0,0-.429-.191,1.062,1.062,0,0,0-1.083.286l-.143.163-.089-.211c-.3-.763-.681-1.75-1.062-2.84a33.813,33.813,0,0,1-1.464-4.6,31.845,31.845,0,0,1,1.8,4.481c.4,1.083.736,2.084.988,2.86l-.232-.041a1.171,1.171,0,0,1,.742-.347,1.232,1.232,0,0,1,.6.1C95.812,227.645,95.894,227.856,95.88,227.869Z" transform="translate(-54.476 -142.748)" fill="#263238"/><path d="M86.25,242.673A9.044,9.044,0,0,1,87.06,241c.538-1.008,1.3-2.4,2.173-3.916s1.669-2.888,2.261-3.868a9.854,9.854,0,0,1,1.028-1.553,9.732,9.732,0,0,1-.81,1.675c-.538,1.015-1.308,2.4-2.173,3.923s-1.669,2.888-2.261,3.868a10.128,10.128,0,0,1-1.028,1.546Z" transform="translate(-52.766 -146.314)" fill="#263238"/><path d="M79.045,238.969a6.32,6.32,0,0,1,.974-.681c.633-.409,1.553-.981,2.67-1.662l-.061.184c-.62-1.451-1.362-3.146-2.125-4.972-.967-2.3-1.832-4.406-2.465-5.98l.191.061c-.885.484-1.607.865-2.1,1.124a4.046,4.046,0,0,1-.8.368,3.835,3.835,0,0,1,.729-.5c.484-.3,1.178-.715,2.043-1.219l.123-.075.061.136c.681,1.553,1.58,3.644,2.547,5.946.763,1.832,1.464,3.535,2.043,4.992l.048.123-.109.061c-1.131.681-2.043,1.192-2.724,1.553A5.8,5.8,0,0,1,79.045,238.969Z" transform="translate(-49.28 -144.387)" fill="#fafafa"/><path d="M97.15,383.871a4,4,0,0,0,3.875-3.753c1.165-18.851,6.409-104.6,5.36-107.292-1.185-3.024-4.3-13.539-4.3-13.539L74.28,258s-6.919,10.9-7.914,15.106c-.9,3.753-26.091,83.135-29.224,99.991a3.453,3.453,0,0,0,2.4,3.936Z" transform="translate(-37.085 -154.715)" fill="#263238"/><path d="M81.375,258.87s-.034.1-.123.3l-.4.858-1.553,3.283c-.306.729-.64,1.539-1.015,2.418s-.783,1.846-1.151,2.9S76.322,270.8,75.907,272s-.8,2.479-1.24,3.821l-1.233,4.25c-.4,1.485-.783,3.037-1.205,4.645s-.756,3.283-1.158,5.006-.763,3.5-1.11,5.333c-.749,3.65-1.485,7.492-2.261,11.482s-1.607,8.1-2.581,12.3c-.47,2.1-1.015,4.141-1.519,6.184s-1.1,4.018-1.7,5.959c-1.178,3.889-2.472,7.594-3.793,11.081-2.67,6.981-5.448,13.117-7.832,18.218s-4.474,9.174-5.9,11.986l-1.655,3.249c-.184.354-.334.633-.443.831a2.532,2.532,0,0,1-.157.279,2.534,2.534,0,0,1,.129-.293c.1-.2.232-.49.409-.851.375-.763.913-1.859,1.607-3.262,1.362-2.826,3.405-6.919,5.8-12.034s5.108-11.251,7.757-18.225c1.308-3.487,2.595-7.185,3.773-11.067.593-1.934,1.124-3.93,1.682-5.946s1.049-4.086,1.505-6.191c.974-4.188,1.791-8.316,2.588-12.293s1.519-7.825,2.282-11.476c.361-1.832.77-3.61,1.137-5.333s.8-3.405,1.171-5.012.817-3.16,1.226-4.645.858-2.894,1.26-4.25L75.7,271.9c.422-1.2.865-2.316,1.26-3.364s.8-2.043,1.185-2.894.729-1.689,1.042-2.411c.681-1.423,1.24-2.52,1.607-3.262l.429-.838Z" transform="translate(-38.691 -154.993)" fill="#455a64"/><path d="M63.71,379a1.1,1.1,0,0,1,.068-.306c.068-.2.143-.524.245-.906l.967-3.473c.838-3.037,2.043-7.4,3.541-12.776s3.221-11.83,5.094-18.988c.926-3.582,1.893-7.342,2.9-11.237s1.982-7.955,3.017-12.1,1.975-8.173,2.922-12.123,1.791-7.7,2.636-11.305c1.641-7.212,3.085-13.723,4.263-19.192s2.111-9.889,2.772-12.94c.32-1.519.572-2.724.749-3.528.089-.388.157-.681.2-.913a1.993,1.993,0,0,1,.082-.313,2.819,2.819,0,0,1-.048.32c-.041.218-.1.524-.17.919-.157.824-.388,2.043-.681,3.541l-1.124,5.571c-.456,2.179-.967,4.658-1.539,7.4-1.144,5.448-2.561,11.986-4.2,19.212-.824,3.6-1.682,7.4-2.615,11.312s-1.914,7.975-2.908,12.129-2.043,8.173-3.031,12.089-1.982,7.662-2.915,11.237c-1.9,7.158-3.657,13.621-5.169,18.974l-2.043,7.267c-.62,2.132-1.158,3.97-1.594,5.448s-.79,2.649-1.028,3.46c-.116.381-.211.681-.272.892A1.562,1.562,0,0,1,63.71,379Z" transform="translate(-45.577 -155.002)" fill="#455a64"/><path d="M102.518,259a1.614,1.614,0,0,0,.048.313l.116.94c.048.415.109.926.177,1.519s.089,1.308.136,2.091c0,.4.048.81.068,1.246s0,.9,0,1.362v1.5c0,.518-.048,1.062-.068,1.621s-.054,1.137-.089,1.73-.109,1.212-.17,1.846c-.089,1.267-.306,2.588-.477,3.991-.422,2.785-.981,5.816-1.7,9.051s-1.553,6.667-2.425,10.284-1.778,7.417-2.527,11.387-1.362,8.111-1.921,12.368-.96,8.4-1.437,12.429-.885,7.907-1.362,11.578l-.736,5.394c-.286,1.737-.538,3.405-.824,5.067s-.579,3.2-.9,4.706-.64,2.942-.96,4.311-.681,2.663-1.022,3.889-.722,2.356-1.049,3.405c-.17.531-.32,1.049-.5,1.539s-.354.96-.518,1.41c-.334.892-.64,1.716-.919,2.452-.6,1.457-1.124,2.561-1.451,3.324l-.4.858c-.089.191-.143.286-.143.286a.723.723,0,0,1,.109-.307c.109-.2.211-.5.361-.872.313-.763.81-1.88,1.362-3.337l.879-2.465.511-1.4c.17-.49.313-1.015.477-1.546.32-1.069.681-2.207,1.022-3.405l.994-3.882.94-4.311c.306-1.505.572-3.078.879-4.706s.524-3.323.8-5.06.477-3.541.722-5.387c.456-3.691.9-7.566,1.362-11.578s.892-8.173,1.437-12.456,1.185-8.411,1.934-12.4,1.669-7.784,2.547-11.394,1.737-7.049,2.459-10.27,1.294-6.252,1.737-9.031c.177-1.362.4-2.724.5-3.977.068-.627.123-1.24.184-1.832s.068-1.171.1-1.73.075-1.09.082-1.614,0-1.015,0-1.491v-1.362c0-.429-.041-.845-.054-1.24-.041-.783-.041-1.485-.1-2.084s-.1-1.11-.143-1.526-.061-.715-.082-.94A2.263,2.263,0,0,1,102.518,259Z" transform="translate(-51.245 -155.034)" fill="#455a64"/><path d="M107.223,383.772a2.772,2.772,0,0,1-.075-.313c-.041-.225-.1-.531-.177-.926s-.163-.919-.272-1.519-.252-1.28-.32-2.043-.191-1.655-.306-2.608-.136-2-.218-3.119c0-.558-.068-1.144-.089-1.737s0-1.219,0-1.859v-1.961c0-.674.054-1.362.075-2.043s.061-1.43.089-2.166.123-1.491.177-2.261c.1-1.539.3-3.126.49-4.767s.463-3.344.681-5.094.572-3.541.926-5.373c1.362-7.348,3.2-15.337,4.9-23.769a238.709,238.709,0,0,0,3.575-23.98c.736-7.423,1.015-14.132,1.11-19.75v-7.607c0-2.234-.1-4.168-.163-5.748s-.129-2.8-.163-3.63v-.947c0,.211.041.545.075.947.054.824.157,2.043.225,3.623s.163,3.507.225,5.748.082,4.767.068,7.614c-.061,5.646-.32,12.368-1.035,19.8a235.24,235.24,0,0,1-3.555,24.02c-1.7,8.445-3.575,16.427-4.931,23.762-.354,1.825-.633,3.623-.94,5.36s-.538,3.439-.715,5.087-.4,3.228-.5,4.767c-.068.763-.129,1.512-.191,2.247s-.068,1.457-.1,2.159-.054,1.4-.089,2.043v3.807c0,.592.054,1.171.082,1.73.068,1.117.068,2.166.184,3.112s.191,1.825.272,2.615.2,1.471.286,2.043l.245,1.519c.061.4.1.681.143.933S107.223,383.772,107.223,383.772Z" transform="translate(-58.988 -155.426)" fill="#455a64"/><path d="M127.073,259.79s.034.1.1.306l.266.9.415,1.478a20.587,20.587,0,0,1,.477,2.043c.15.77.361,1.621.511,2.568s.279,1.975.436,3.085.184,2.3.286,3.569.1,2.6.075,4.011a85.415,85.415,0,0,1-.593,9.174c-.361,3.289-.926,6.776-1.58,10.427L125.323,308.8c-.749,3.97-1.4,8.1-2,12.341s-1.076,8.39-1.471,12.409-.681,7.907-.913,11.612-.375,7.226-.443,10.529-.109,6.375-.1,9.18.054,5.346.123,7.573.15,4.148.211,5.714.136,2.772.177,3.61a8.236,8.236,0,0,0,.041.94v.327a1.894,1.894,0,0,0-.041-.32l-.075-.94c-.054-.824-.15-2.043-.238-3.61s-.2-3.487-.272-5.714-.143-4.767-.177-7.58,0-5.884.054-9.187.211-6.81.409-10.543.49-7.6.892-11.625.865-8.173,1.471-12.429,1.246-8.377,2-12.347l2.159-11.448c.681-3.65,1.205-7.137,1.607-10.406a85.328,85.328,0,0,0,.633-9.146c0-1.4-.041-2.724-.048-4s-.177-2.445-.259-3.555-.279-2.132-.4-3.078-.341-1.791-.477-2.568a19.984,19.984,0,0,0-.449-2.043c-.17-.593-.279-1.069-.381-1.478s-.177-.681-.232-.913A2.491,2.491,0,0,1,127.073,259.79Z" transform="translate(-63.575 -155.286)" fill="#455a64"/></g><g transform="translate(225.195 89.24)"><rect width="78.061" height="74.036" rx="6.79" transform="translate(0 10.918) rotate(-8.04)" fill="#1e55a2"/><path d="M381.33,169.743a3.038,3.038,0,0,1-.518.109l-1.492.245-5.557.851-18.586,2.724h-.15l-.041-.15c-.279-.967-.579-1.982-.879-3.017-2.527-8.854-4.767-16.733-6.259-21.889l.123.075-4.958.681-1.321.163a2.962,2.962,0,0,1-.463,0,2.607,2.607,0,0,1,.449-.1l1.314-.218,4.944-.763h.1v.089l6.388,21.855.872,3.024-.191-.129,18.661-2.588,5.544-.742,1.505-.184A3.294,3.294,0,0,1,381.33,169.743Z" transform="translate(-322.999 -118.409)" fill="#ebebeb"/><path d="M357.355,167.938h.129l.381-.075,1.492-.238,5.591-.858,19.287-2.833-.15.163c.109-3.33.225-6.933.341-10.658.061-1.914.123-3.8.184-5.6l.2.184-22.754,3.208-6.736.913-1.818.232-.477.054h-.163a.552.552,0,0,1,.163-.041l.463-.082,1.812-.293,6.729-1.022,22.733-3.324h.2v.211c-.054,1.8-.116,3.678-.177,5.6-.123,3.725-.245,7.328-.354,10.658v.1h-.143l-19.308,2.724-5.6.756-1.5.191-.388.041Z" transform="translate(-326.709 -118.157)" fill="#ebebeb"/><path d="M370.262,193.131c-.034,0-.068-.232-.238-.6a2.629,2.629,0,0,0-1.151-1.219,2.481,2.481,0,1,0-1.73,4.59,2.527,2.527,0,0,0,2.3-.681,2.6,2.6,0,0,0,.763-1.5c.061-.4,0-.64.061-.64a1.362,1.362,0,0,1,.082.681,2.643,2.643,0,0,1-.729,1.662,2.789,2.789,0,1,1-.627-4.359,2.642,2.642,0,0,1,1.165,1.362A1.416,1.416,0,0,1,370.262,193.131Z" transform="translate(-330.524 -131.881)" fill="#ebebeb"/><path d="M394.972,189.6a4.852,4.852,0,0,0-.238-.6,2.608,2.608,0,0,0-1.158-1.219,2.486,2.486,0,1,0,.572,3.957,2.6,2.6,0,0,0,.763-1.5c.061-.4,0-.64.061-.64a1.362,1.362,0,0,1,.075.681,2.6,2.6,0,0,1-.722,1.662,2.789,2.789,0,1,1-.627-4.359,2.642,2.642,0,0,1,1.165,1.362,1.416,1.416,0,0,1,.109.654Z" transform="translate(-338.406 -130.771)" fill="#ebebeb"/><circle cx="7.539" cy="7.539" r="7.539" transform="translate(45.823 29.349) rotate(-56.52)" fill="#fafafa"/><path d="M399.11,139.36a7.3,7.3,0,0,1-.8,1.362c-.531.8-1.28,1.893-2.125,3.092l-.906,1.274-.1.136-.136-.089A24.127,24.127,0,0,1,392,142.963a24.782,24.782,0,0,1,3.235,1.886l-.232.041.9-1.28c.844-1.2,1.628-2.268,2.207-3.037A6.908,6.908,0,0,1,399.11,139.36Z" transform="translate(-339.193 -115.506)" fill="#1e55a2"/><rect width="63.242" height="59.98" rx="6.79" transform="matrix(0.97, 0.244, -0.244, 0.97, 22.004, 85.734)" fill="#455a64"/><path d="M360.41,266.064l.477,13.008,23.837,6.014,6.736-10.679a10.6,10.6,0,0,0-3.991-1.491l2.806-13.008a1.832,1.832,0,0,0-2.091-2.193l-2.568.429-13.451-3.405-1.362-1.165a1.8,1.8,0,0,0-2.929.94l-3.146,12.831a10.454,10.454,0,0,0-4.318-1.28Z" transform="translate(-329.117 -151.794)" fill="#fafafa"/><path d="M370.15,281.294a9.494,9.494,0,0,0,4.318,4.086,14.649,14.649,0,0,0,5.843,1.362,4.055,4.055,0,0,0,3.085-.831,4.6,4.6,0,0,0,.885-3.187,15.372,15.372,0,0,0-.354-4.331,5.21,5.21,0,0,0-2.54-3.405c-1.771-.858-3.916-.252-5.625.715a14.731,14.731,0,0,0-5.448,5.373" transform="translate(-332.224 -158.634)" fill="#e0e0e0"/><rect width="1.301" height="11.373" transform="matrix(0.97, 0.244, -0.244, 0.97, 31.752, 127.268)" fill="#263238"/><rect width="1.301" height="5.809" transform="matrix(0.97, 0.244, -0.244, 0.97, 36.153, 128.39)" fill="#263238"/><rect width="1.301" height="5.809" transform="matrix(0.97, 0.244, -0.244, 0.97, 48.802, 131.583)" fill="#263238"/><rect width="1.301" height="11.373" transform="matrix(0.97, 0.244, -0.244, 0.97, 54.371, 132.983)" fill="#263238"/><path d="M371.077,274.139c-.1,0,.872-4.175,2.159-9.269s2.4-9.208,2.493-9.18-.865,4.168-2.152,9.269S371.172,274.16,371.077,274.139Z" transform="translate(-332.517 -152.61)" fill="#263238"/><path d="M390.867,279.126c-.1,0,.865-4.175,2.152-9.269s2.4-9.208,2.5-9.187-.872,4.175-2.159,9.269S390.956,279.147,390.867,279.126Z" transform="translate(-338.829 -154.199)" fill="#263238"/><path d="M389.37,279.491a3.685,3.685,0,0,1-.681,0h-.354l-.429.048-.49.061-.538.143a4.972,4.972,0,0,0-2.343,1.464,6.191,6.191,0,0,0-1.505,3.2v.184l-.17-.048-6.381-1.587-7.144-1.825h-.15v-.15a6.715,6.715,0,0,0-.061-3.283,7.117,7.117,0,0,0-1.1-2.316,9.643,9.643,0,0,0-1.566-1.635,2.6,2.6,0,0,1,.511.32,6.373,6.373,0,0,1,1.205,1.205,7.055,7.055,0,0,1,1.192,2.356,6.885,6.885,0,0,1,.123,3.405l-.116-.184,7.158,1.778,6.368,1.628-.2.136a6.375,6.375,0,0,1,1.628-3.351,5.149,5.149,0,0,1,2.506-1.444l.565-.123.5-.034.436-.034h.368A2.726,2.726,0,0,1,389.37,279.491Z" transform="translate(-331.047 -158.371)" fill="#263238"/><path d="M367.479,284.328c0,.054-.484,0-1.219.163a5.741,5.741,0,0,0-4.331,3.494c-.286.681-.354,1.165-.415,1.151a2.506,2.506,0,0,1,.184-1.24,5.36,5.36,0,0,1,1.723-2.493,5.448,5.448,0,0,1,2.806-1.165A2.458,2.458,0,0,1,367.479,284.328Z" transform="translate(-329.465 -161.702)" fill="#263238"/><path d="M393.894,296.732c-.054,0,.061-.524.061-1.362a7.069,7.069,0,0,0-.729-3.112,6.974,6.974,0,0,0-2.043-2.445c-.681-.5-1.144-.681-1.124-.763a3.065,3.065,0,0,1,1.267.558,6.347,6.347,0,0,1,2.894,5.768,3.051,3.051,0,0,1-.327,1.355Z" transform="translate(-338.574 -163.251)" fill="#263238"/></g><g transform="translate(125.149 82.371)"><path d="M271.835,346.816l-85.7-.395a18.667,18.667,0,0,1-18.579-18.742l.906-214.843A18.674,18.674,0,0,1,187.222,94.25l85.7.4A18.661,18.661,0,0,1,291.5,113.387l-.906,214.836a18.674,18.674,0,0,1-18.756,18.593Z" transform="translate(-167.56 -94.25)" fill="#263238"/><path d="M274.378,103.508l-16.618-.082a4.134,4.134,0,0,0-4.052,4.2v3.01a4.127,4.127,0,0,1-4.052,4.2l-32.384-.15a4.134,4.134,0,0,1-4.018-4.236v-3.017a4.134,4.134,0,0,0-4.018-4.236h-5.843l-14.54-.061a13.076,13.076,0,0,0-13.137,13.015l-.885,209.7a13.076,13.076,0,0,0,13.056,13.1l85.526.395a13.069,13.069,0,0,0,13.131-13.015l.879-209.674a13.069,13.069,0,0,0-13.042-13.158Z" transform="translate(-169.879 -97.085)" fill="#fafafa"/><path d="M191.671,134.867a.354.354,0,0,1-.245-.109l-1.3-1.362a.313.313,0,0,1-.1-.238.334.334,0,0,1,.1-.238l1.308-1.246a.334.334,0,0,1,.477,0,.341.341,0,0,1,0,.484l-1.062,1.008,1.069,1.117a.341.341,0,0,1,0,.484.354.354,0,0,1-.252.1Z" transform="translate(-174.727 -106.154)" fill="#263238"/><rect width="92.663" height="23.925" rx="11.963" transform="translate(16.018 205.928)" fill="#1e55a2"/><path d="M242.93,410.108h2.152a2.649,2.649,0,1,1,0,5.292H242.93Zm2.125,4.808a2.166,2.166,0,1,0,0-4.325h-1.566v4.325Z" transform="translate(-191.599 -194.993)" fill="#fafafa"/><path d="M251.4,412.657a2.779,2.779,0,1,1,2.785,2.69,2.656,2.656,0,0,1-2.785-2.69Zm5,0a2.227,2.227,0,1,0-2.213,2.193,2.138,2.138,0,0,0,2.213-2.193Z" transform="translate(-194.3 -194.893)" fill="#fafafa"/><path d="M265.807,410.11V415.4h-.456l-3.405-4.291V415.4h-.565V410.11h.463l3.405,4.291V410.11Z" transform="translate(-197.484 -194.995)" fill="#fafafa"/><path d="M274.149,414.918v.484H270.41V410.11h3.623v.484h-3.065v1.88h2.724v.477h-2.724v1.968Z" transform="translate(-200.364 -194.995)" fill="#fafafa"/><path d="M205.748,290.273c0,.96-.681,1.546-1.846,1.546h-1.219v1.43H202.2V288.72h1.7C205.054,288.713,205.748,289.292,205.748,290.273Zm-.477,0c0-.729-.477-1.144-1.362-1.144H202.7V291.4h1.205C204.788,291.39,205.272,290.954,205.272,290.273Z" transform="translate(-178.608 -156.277)" fill="#263238"/><path d="M211.942,290.36v3.405H211.5v-.62a1.362,1.362,0,0,1-1.226.681,1.321,1.321,0,0,1-1.437-1.464v-1.975h.463v1.927c0,.729.375,1.1,1.022,1.1a1.11,1.11,0,0,0,1.158-1.24v-1.784Z" transform="translate(-180.722 -156.8)" fill="#263238"/><path d="M217.006,290.318v.463H216.9a1.1,1.1,0,0,0-1.151,1.253v1.737h-.456v-3.405h.436v.681a1.294,1.294,0,0,1,1.28-.729Z" transform="translate(-182.784 -156.785)" fill="#263238"/><path d="M218.469,292.048a1.682,1.682,0,0,1,1.757-1.73,1.485,1.485,0,0,1,1.362.681l-.347.232a1.158,1.158,0,0,0-.988-.5,1.362,1.362,0,0,0,0,2.656,1.151,1.151,0,0,0,.988-.5l.347.232a1.512,1.512,0,0,1-1.362.681,1.689,1.689,0,0,1-1.757-1.75Z" transform="translate(-183.797 -156.785)" fill="#263238"/><path d="M227.39,291.136v1.975h-.463v-1.927a.953.953,0,0,0-1.022-1.09,1.117,1.117,0,0,0-1.192,1.233v1.784h-.463v-4.8h.463V290.3a1.437,1.437,0,0,1,1.274-.62,1.308,1.308,0,0,1,1.4,1.457Z" transform="translate(-185.641 -156.146)" fill="#263238"/><path d="M233.13,291.634v2.111h-.443v-.531a1.28,1.28,0,0,1-1.171.565c-.77,0-1.246-.4-1.246-.994s.341-.96,1.314-.96h1.083v-.211c0-.579-.327-.9-.967-.9a1.743,1.743,0,0,0-1.131.4l-.2-.341a2.138,2.138,0,0,1,1.362-.463,1.212,1.212,0,0,1,1.4,1.321Zm-.463,1.09v-.586H231.6c-.681,0-.872.259-.872.606s.313.647.858.647a1.1,1.1,0,0,0,1.083-.667Z" transform="translate(-187.561 -156.78)" fill="#263238"/><path d="M235.61,293.364l.2-.361a2.084,2.084,0,0,0,1.212.381c.647,0,.913-.225.913-.558,0-.885-2.207-.191-2.207-1.532,0-.558.477-.974,1.362-.974a2.255,2.255,0,0,1,1.2.32l-.2.368a1.716,1.716,0,0,0-1-.293c-.62,0-.892.238-.892.565,0,.919,2.207.225,2.207,1.532,0,.592-.518.974-1.4.974a2.289,2.289,0,0,1-1.4-.422Z" transform="translate(-189.265 -156.787)" fill="#263238"/><path d="M243.762,292.193h-2.847a1.267,1.267,0,0,0,1.362,1.185,1.362,1.362,0,0,0,1.042-.449l.259.3a1.8,1.8,0,0,1-3.1-1.178,1.641,1.641,0,0,1,1.662-1.73,1.621,1.621,0,0,1,1.648,1.73A.335.335,0,0,0,243.762,292.193Zm-2.847-.347h2.418a1.212,1.212,0,0,0-2.418,0Z" transform="translate(-190.817 -156.787)" fill="#263238"/><path d="M253.908,290.36l-1.287,3.405h-.429l-1.069-2.792-1.076,2.792h-.436l-1.28-3.405h.456l1.062,2.894,1.1-2.894h.4l1.09,2.894,1.083-2.894Z" transform="translate(-193.322 -156.8)" fill="#263238"/><path d="M259.824,291.634v2.111h-.436v-.531a1.294,1.294,0,0,1-1.171.565c-.77,0-1.246-.4-1.246-.994s.341-.96,1.314-.96h1.083v-.211c0-.579-.327-.9-.967-.9a1.744,1.744,0,0,0-1.131.4l-.2-.341a2.138,2.138,0,0,1,1.362-.463,1.212,1.212,0,0,1,1.4,1.321Zm-.456,1.09v-.586H258.3c-.681,0-.872.259-.872.606s.313.647.858.647a1.1,1.1,0,0,0,1.083-.667Z" transform="translate(-196.078 -156.78)" fill="#263238"/><path d="M262.31,293.364l.2-.361a2.084,2.084,0,0,0,1.212.381c.647,0,.913-.225.913-.558,0-.885-2.207-.191-2.207-1.532,0-.558.477-.974,1.362-.974a2.282,2.282,0,0,1,1.205.32l-.2.368a1.723,1.723,0,0,0-1.008-.293c-.613,0-.885.238-.885.565,0,.919,2.207.225,2.207,1.532,0,.593-.518.974-1.4.974A2.268,2.268,0,0,1,262.31,293.364Z" transform="translate(-197.781 -156.787)" fill="#263238"/><path d="M269.45,293.364l.2-.361a2.084,2.084,0,0,0,1.212.381c.681,0,.913-.225.913-.558,0-.885-2.207-.191-2.207-1.532,0-.558.477-.974,1.362-.974a2.255,2.255,0,0,1,1.2.32l-.2.368a1.716,1.716,0,0,0-1-.293c-.62,0-.892.238-.892.565,0,.919,2.213.225,2.213,1.532,0,.592-.524.974-1.41.974a2.268,2.268,0,0,1-1.4-.422Z" transform="translate(-200.058 -156.787)" fill="#263238"/><path d="M277.842,290.36v3.405H277.4v-.62a1.362,1.362,0,0,1-1.226.681,1.321,1.321,0,0,1-1.437-1.464v-1.975h.463v1.927c0,.729.375,1.1,1.022,1.1a1.11,1.11,0,0,0,1.158-1.24v-1.784Z" transform="translate(-201.741 -156.8)" fill="#263238"/><path d="M280.689,292.048a1.675,1.675,0,0,1,1.75-1.73A1.485,1.485,0,0,1,283.8,291l-.341.232a1.178,1.178,0,0,0-.994-.5,1.362,1.362,0,0,0,0,2.656,1.172,1.172,0,0,0,.994-.5l.341.232a1.512,1.512,0,0,1-1.362.681,1.682,1.682,0,0,1-1.75-1.75Z" transform="translate(-203.642 -156.785)" fill="#263238"/><path d="M286,292.048a1.682,1.682,0,0,1,1.757-1.73,1.485,1.485,0,0,1,1.362.681l-.347.232a1.158,1.158,0,0,0-.988-.5,1.362,1.362,0,0,0,0,2.656,1.151,1.151,0,0,0,.988-.5l.347.232a1.512,1.512,0,0,1-1.362.681,1.689,1.689,0,0,1-1.757-1.75Z" transform="translate(-205.336 -156.785)" fill="#263238"/><path d="M294.542,292.193h-2.847a1.26,1.26,0,0,0,1.362,1.185,1.362,1.362,0,0,0,1.042-.449l.266.3a1.8,1.8,0,0,1-3.106-1.178,1.661,1.661,0,1,1,3.317,0A.262.262,0,0,0,294.542,292.193Zm-2.847-.347h2.411a1.205,1.205,0,1,0-2.411,0Z" transform="translate(-207.013 -156.787)" fill="#263238"/><path d="M296.77,293.364l.211-.361a2.043,2.043,0,0,0,1.212.381c.647,0,.913-.225.913-.558,0-.885-2.213-.191-2.213-1.532,0-.558.484-.974,1.362-.974a2.282,2.282,0,0,1,1.205.32l-.2.368a1.744,1.744,0,0,0-1.008-.293c-.613,0-.885.238-.885.565,0,.919,2.207.225,2.207,1.532,0,.593-.518.974-1.4.974A2.3,2.3,0,0,1,296.77,293.364Z" transform="translate(-208.772 -156.787)" fill="#263238"/><path d="M301.42,293.364l.211-.361a2.043,2.043,0,0,0,1.212.381c.647,0,.913-.225.913-.558,0-.885-2.213-.191-2.213-1.532,0-.558.484-.974,1.362-.974a2.282,2.282,0,0,1,1.205.32l-.2.368a1.744,1.744,0,0,0-1.008-.293c-.613,0-.885.238-.885.565,0,.919,2.207.225,2.207,1.532,0,.593-.518.974-1.4.974a2.3,2.3,0,0,1-1.4-.422Z" transform="translate(-210.255 -156.787)" fill="#263238"/><path d="M307.049,289.286v.4H308.1v.388h-1.035v3.017H306.6v-3.017H306v-.388h.606v-.422a.933.933,0,0,1,1.028-1.008,1.083,1.083,0,0,1,.681.211l-.157.347a.743.743,0,0,0-.5-.17C307.253,288.646,307.049,288.864,307.049,289.286Z" transform="translate(-211.716 -156.128)" fill="#263238"/><path d="M313.042,290.36v3.405H312.6v-.62a1.362,1.362,0,0,1-1.226.681,1.321,1.321,0,0,1-1.437-1.464v-1.975h.463v1.927c0,.729.375,1.1,1.022,1.1a1.11,1.11,0,0,0,1.158-1.24v-1.784Z" transform="translate(-212.969 -156.8)" fill="#263238"/><path d="M316.39,288.31h.463v4.8h-.463Z" transform="translate(-215.03 -156.146)" fill="#263238"/><path d="M210.141,263.172H207.26V261.81h7.369v1.362h-2.881v7.321h-1.607Z" transform="translate(-180.222 -147.694)" fill="#1e55a2"/><path d="M226.158,266.464v3.8h-1.546v-3.6c0-1.178-.586-1.75-1.573-1.75a1.767,1.767,0,0,0-1.852,2v3.351H219.64V261.05h1.546v3.371a2.963,2.963,0,0,1,2.207-.845A2.558,2.558,0,0,1,226.158,266.464Z" transform="translate(-184.171 -147.451)" fill="#1e55a2"/><path d="M237.424,267.551v3.882h-1.457v-.81a2.35,2.35,0,0,1-2.084.892c-1.512,0-2.472-.831-2.472-1.982s.749-1.968,2.758-1.968h1.73v-.1c0-.906-.545-1.437-1.648-1.437a3.269,3.269,0,0,0-2.043.681l-.606-1.124a4.638,4.638,0,0,1,2.8-.824C236.32,264.732,237.424,265.637,237.424,267.551Zm-1.526,1.8v-.763h-1.6c-1.056,0-1.362.395-1.362.879s.477.919,1.267.919a1.682,1.682,0,0,0,1.7-1.035Z" transform="translate(-187.925 -148.633)" fill="#1e55a2"/><path d="M249.674,267.639v3.8h-1.553v-3.6c0-1.178-.579-1.75-1.573-1.75a1.763,1.763,0,0,0-1.846,2v3.351H243.15v-6.627h1.478v.858a2.888,2.888,0,0,1,2.281-.933A2.575,2.575,0,0,1,249.674,267.639Z" transform="translate(-191.67 -148.626)" fill="#1e55a2"/><path d="M258.324,267.411l-1.151,1.1v1.75H255.62V261.05h1.553V266.6l3.208-2.976h1.859l-2.765,2.779,3.024,3.848h-1.852Z" transform="translate(-195.647 -147.451)" fill="#1e55a2"/><path d="M277.843,264.83l-3.1,7.158a2.564,2.564,0,0,1-2.554,1.955,2.725,2.725,0,0,1-1.771-.606l.62-1.137a1.655,1.655,0,0,0,1.137.456c.545,0,.872-.259,1.165-.919l.116-.259-2.888-6.647h1.607l2.084,4.9,2.1-4.9Z" transform="translate(-200.367 -148.657)" fill="#1e55a2"/><path d="M281.659,267.98a3.528,3.528,0,1,1,3.521,3.405,3.337,3.337,0,0,1-3.521-3.405Zm5.5,0a1.968,1.968,0,1,0-1.975,2.043,1.934,1.934,0,0,0,1.975-2.043Z" transform="translate(-203.952 -148.498)" fill="#1e55a2"/><path d="M300.593,264.83v6.627h-1.478v-.845a2.724,2.724,0,0,1-2.132.926,2.616,2.616,0,0,1-2.854-2.922V264.83h1.553v3.575c0,1.2.565,1.771,1.546,1.771a1.8,1.8,0,0,0,1.812-2V264.83Z" transform="translate(-207.93 -148.657)" fill="#1e55a2"/><path d="M306.18,269.608a.967.967,0,1,1,.3.7A.96.96,0,0,1,306.18,269.608Zm.089-7.8H308.1l-.306,5.8h-1.233Z" transform="translate(-211.773 -147.694)" fill="#1e55a2"/><circle cx="17.83" cy="17.83" r="17.83" transform="translate(45.14 65.469)" fill="#1e55a2"/><path d="M265.251,205.507c.225.184-3.106,4.665-7.437,10l-2.629,3.187-.361.436-.381-.4c-3.405-3.494-5.7-6.082-5.537-6.245s2.758,2.145,6.245,5.53l-.736.075,2.574-3.221C261.322,209.505,265.02,205.323,265.251,205.507Z" transform="translate(-193.503 -129.734)" fill="#fff"/><path d="M295.823,205.207c-.531-1.873-2.963-1.689-2.963-1.689l.061,1.3c1.41-.245,2.282,1.4,2.282,1.4Z" transform="translate(-207.525 -129.1)" fill="#1e55a2"/><path d="M219.983,210.984c-.524-1.873-2.963-1.7-2.963-1.7l.068,1.308c1.41-.245,2.281,1.4,2.281,1.4Z" transform="translate(-183.335 -130.94)" fill="#e0e0e0"/><path d="M262.767,172.148c2.826.858,4.583-2.4,4.583-2.4l-1.716-.981c-.844,2-3.664,1.764-3.664,1.764Z" transform="translate(-197.672 -118.018)" fill="#e0e0e0"/><path d="M239.441,178.88c-1.314.143-1.471,1.791-1.471,1.791l.879.1c0-.967,1.205-1.362,1.205-1.362Z" transform="translate(-190.017 -121.243)" fill="#1e55a2"/><path d="M318.882,195.723c.191-1.308-1.362-1.873-1.362-1.873l-.32.824c.94.238,1.028,1.505,1.028,1.505Z" transform="translate(-215.288 -126.018)" fill="#e0e0e0"/><path d="M250.6,152.733c.191-1.308-1.362-1.873-1.362-1.873l-.32.831c.94.238,1.028,1.5,1.028,1.5Z" transform="translate(-193.51 -112.306)" fill="#1e55a2"/><path d="M203.7,184.178c-.232,2.043,2.479,2.547,2.479,2.547l.49-1.362c-1.628-.15-1.859-2.043-1.859-2.043Z" transform="translate(-179.083 -122.659)" fill="#1e55a2"/><path d="M292.228,172.841c1.321.075,1.743-1.526,1.743-1.526l-.851-.245c-.157.953-1.41,1.151-1.41,1.151Z" transform="translate(-207.158 -118.752)" fill="#1e55a2"/><path d="M302.039,181.519a3.058,3.058,0,0,1-1.09.1,3.024,3.024,0,0,1-1.09-.1A5.5,5.5,0,0,1,302.039,181.519Z" transform="translate(-209.757 -122.05)" fill="#e0e0e0"/><path d="M304.709,177.22a6.006,6.006,0,0,1,0,2.207,5.64,5.64,0,0,1,0-2.207Z" transform="translate(-211.269 -120.713)" fill="#e0e0e0"/><path d="M306.56,181.407a3.058,3.058,0,0,1,1.09-.1,3.024,3.024,0,0,1,1.09.1A5.5,5.5,0,0,1,306.56,181.407Z" transform="translate(-211.894 -122.012)" fill="#e0e0e0"/><path d="M304.819,184.783a5.674,5.674,0,0,1,0-2.213A6.047,6.047,0,0,1,304.819,184.783Z" transform="translate(-211.304 -122.42)" fill="#e0e0e0"/><path d="M307.083,183.564c-.041.034-.252-.143-.47-.4s-.347-.5-.306-.531.259.136.47.4S307.131,183.489,307.083,183.564Z" transform="translate(-211.811 -122.44)" fill="#e0e0e0"/><path d="M306.92,179c.041.048-.1.259-.327.484s-.436.375-.477.334.1-.259.327-.484A1.268,1.268,0,0,1,306.92,179Z" transform="translate(-211.751 -121.281)" fill="#e0e0e0"/><path d="M303.277,179.969c-.041.048-.245-.061-.456-.238s-.347-.354-.313-.4.238.061.449.232S303.311,179.928,303.277,179.969Z" transform="translate(-210.6 -121.385)" fill="#e0e0e0"/><path d="M303.145,182.447c.048.034-.082.245-.286.47s-.4.368-.443.327.082-.252.286-.47S303.1,182.406,303.145,182.447Z" transform="translate(-210.57 -122.378)" fill="#e0e0e0"/><path d="M214.919,172.6a5.5,5.5,0,0,1-2.179,0,3.058,3.058,0,0,1,1.09-.1A3.024,3.024,0,0,1,214.919,172.6Z" transform="translate(-181.97 -119.202)" fill="#1e55a2"/><path d="M217.589,168.3a5.673,5.673,0,0,1,0,2.213A5.673,5.673,0,0,1,217.589,168.3Z" transform="translate(-183.482 -117.868)" fill="#1e55a2"/><path d="M219.45,172.5a5.5,5.5,0,0,1,2.179,0A5.5,5.5,0,0,1,219.45,172.5Z" transform="translate(-184.11 -119.173)" fill="#1e55a2"/><path d="M217.7,175.867a5.639,5.639,0,0,1,0-2.207A5.639,5.639,0,0,1,217.7,175.867Z" transform="translate(-183.517 -119.578)" fill="#1e55a2"/><path d="M219.972,174.564c-.048.041-.259-.136-.47-.4s-.354-.49-.306-.531.252.143.47.4S220.013,174.564,219.972,174.564Z" transform="translate(-184.026 -119.569)" fill="#1e55a2"/><path d="M219.81,170.093c.041.041-.109.259-.327.484s-.436.368-.477.327.1-.252.327-.477S219.77,170.025,219.81,170.093Z" transform="translate(-183.967 -118.436)" fill="#1e55a2"/><path d="M216.16,171.055c-.034.041-.238-.061-.449-.238s-.354-.354-.313-.4.238.061.449.238S216.2,171.007,216.16,171.055Z" transform="translate(-182.815 -118.539)" fill="#1e55a2"/><path d="M216.031,173.527c.041.041-.089.252-.286.477s-.4.368-.449.327.089-.252.286-.47S215.983,173.486,216.031,173.527Z" transform="translate(-182.782 -119.533)" fill="#1e55a2"/><path d="M322.113,130.956a65.464,65.464,0,0,1-9.623,0,65.461,65.461,0,0,1,9.623,0Z" transform="translate(-213.786 -105.893)" fill="#263238"/><path d="M322.113,133.907a65.464,65.464,0,0,1-9.623,0,65.464,65.464,0,0,1,9.623,0Z" transform="translate(-213.786 -106.835)" fill="#263238"/><path d="M322.113,136.837a65.464,65.464,0,0,1-9.623,0,65.464,65.464,0,0,1,9.623,0Z" transform="translate(-213.786 -107.77)" fill="#263238"/><rect width="22.427" height="28.311" transform="translate(74.469 193.89) rotate(-179.55)" fill="#ebebeb"/><path d="M262.493,338.6l-.4,27.405-3.541-.027.763-27.405Z" transform="translate(-196.581 -172.177)" fill="#fafafa"/><path d="M225.281,338.3l12.865.1,22.427.177-22.447,2.949-.191,24.286-12.865-.1Z" transform="translate(-185.903 -172.091)" fill="#e0e0e0"/><path d="M233.641,338.367l-.511,27.412-3.821-.034.627-27.405Z" transform="translate(-187.255 -172.103)" fill="#fafafa"/><path d="M245.619,321.971c0,.177-.375.354-1.062.524a17.641,17.641,0,0,1-5.087.368,8.374,8.374,0,0,1-1.192-.129,9.676,9.676,0,0,1-1.308-.279,3.971,3.971,0,0,1-.81-.347,2.6,2.6,0,0,1-.851-.8,2.39,2.39,0,0,1-.368-1.233,4.087,4.087,0,0,1,.109-.953,16.569,16.569,0,0,1,.858-2.84,7.646,7.646,0,0,1,.824-1.444,6.131,6.131,0,0,1,.552-.681,4.217,4.217,0,0,1,.749-.606,3.025,3.025,0,0,1,1.015-.409,2.683,2.683,0,0,1,1.165.034,3.786,3.786,0,0,1,1.532.844,12.586,12.586,0,0,1,2.949,3.616,8.854,8.854,0,0,1,.987,2.949c.089.735,0,1.151-.163,1.185-.361.089-.885-1.362-2.316-3.174a14.6,14.6,0,0,0-2.881-2.724,1.69,1.69,0,0,0-.681-.334.246.246,0,0,0-.123,0,.9.9,0,0,0-.191.1,2.224,2.224,0,0,0-.286.252c-.1.116-.218.259-.32.4a5.558,5.558,0,0,0-.538.981,19.073,19.073,0,0,0-.77,2.4,1.7,1.7,0,0,0-.068.354h-.068c-.082,0-.1.041-.048,0l.082-.061a.246.246,0,0,0,.061.061,1.7,1.7,0,0,0,.32.163,8.864,8.864,0,0,0,1,.3c.347.1.681.17,1.028.238.681.136,1.314.232,1.907.313,1.192.157,2.186.266,2.874.395S245.612,321.8,245.619,321.971Z" transform="translate(-189.051 -164.05)" fill="#e0e0e0"/><path d="M249.862,321.645c-.061-.354,1.614-.879,4.229-1.648a35.97,35.97,0,0,0,4.413-1.58,4.477,4.477,0,0,0,.96-.531c.1-.089.15-.163.136-.157s0,.1-.034.054a2.724,2.724,0,0,0-.157-.395l-.327-.681a10.9,10.9,0,0,0-.681-1.219,5.053,5.053,0,0,0-.8-.953,4.344,4.344,0,0,0-.449-.361,2,2,0,0,0-.409-.218,1.015,1.015,0,0,0-.681-.061,2.165,2.165,0,0,0-.79.456,17.216,17.216,0,0,0-3.065,3.33c-1.505,2.138-1.9,3.807-2.275,3.753-.163,0-.286-.477-.225-1.3a9.358,9.358,0,0,1,.967-3.337,14.691,14.691,0,0,1,3.072-4.182,4.42,4.42,0,0,1,1.594-1,3.405,3.405,0,0,1,2.22,0,4.583,4.583,0,0,1,.933.463,5.643,5.643,0,0,1,.756.572,7.143,7.143,0,0,1,1.226,1.43,11.73,11.73,0,0,1,.838,1.519l.327.722a4.034,4.034,0,0,1,.334,1.028,2.316,2.316,0,0,1-.252,1.485,2.778,2.778,0,0,1-.831.919,6.258,6.258,0,0,1-1.532.763,23.113,23.113,0,0,1-4.91,1.178C251.647,322.074,249.9,321.972,249.862,321.645Z" transform="translate(-193.758 -163.519)" fill="#ebebeb"/><rect width="32.963" height="9.371" transform="translate(68.272 166.425) rotate(-179.55)" fill="#e0e0e0"/><rect width="29.796" height="9.371" transform="translate(77.222 166.494) rotate(-179.55)" fill="#ebebeb"/><path d="M265.894,324.857l-.211,9.412-3.473-.068.245-9.371Z" transform="translate(-197.749 -167.794)" fill="#fafafa"/><path d="M229.421,324.622l-.341,9.33-3.821-.034.2-9.378Z" transform="translate(-185.964 -167.702)" fill="#fafafa"/><rect width="12.708" height="16.039" transform="translate(89.047 193.298) rotate(-179.55)" fill="#ebebeb"/><path d="M290.134,355.214l-.225,15.535-2.009-.014.429-15.535Z" transform="translate(-205.943 -177.481)" fill="#fafafa"/><path d="M269.046,355.05l7.294.055,12.708.1-12.722,1.675-.109,13.757-7.287-.055Z" transform="translate(-199.892 -177.433)" fill="#e0e0e0"/><path d="M273.782,355.09l-.286,15.528-2.166-.014.354-15.535Z" transform="translate(-200.658 -177.439)" fill="#fafafa"/><path d="M280.488,345.739c0,.238-.831.524-2.288.681a8.309,8.309,0,0,1-2.663-.218,1.8,1.8,0,0,1-1.028-.681,1.553,1.553,0,0,1-.238-.783,2.663,2.663,0,0,1,.061-.586,9.6,9.6,0,0,1,.5-1.641,4.857,4.857,0,0,1,.484-.851,3.017,3.017,0,0,1,.817-.79,1.784,1.784,0,0,1,1.362-.232,2.4,2.4,0,0,1,.933.518,7.034,7.034,0,0,1,1.675,2.111c.681,1.362.586,2.377.361,2.411s-.593-.742-1.417-1.73a8.6,8.6,0,0,0-1.628-1.505.83.83,0,0,0-.306-.157h0l-.048.034a1.478,1.478,0,0,0-.293.327,2.726,2.726,0,0,0-.286.524,10.217,10.217,0,0,0-.429,1.362l-.041.157H275.8a.484.484,0,0,0,.123-.109l.041-.041h0a.681.681,0,0,0,.15.082,11.877,11.877,0,0,0,2.186.511C279.6,345.331,280.488,345.487,280.488,345.739Z" transform="translate(-201.595 -172.821)" fill="#e0e0e0"/><path d="M282.909,345.515c-.048-.272.9-.633,2.356-1.117a23.954,23.954,0,0,0,2.452-.933,2.266,2.266,0,0,0,.484-.279c.041-.034.041-.061,0,0a.408.408,0,0,0-.048.191l-.252-.531a6.524,6.524,0,0,0-.375-.681,2.3,2.3,0,0,0-.409-.49,1.362,1.362,0,0,0-.4-.286.327.327,0,0,0-.211,0,.838.838,0,0,0-.368.2,10.356,10.356,0,0,0-1.737,1.8c-.879,1.151-1.165,2.077-1.444,2.043s-.449-1.131.259-2.724a8.172,8.172,0,0,1,1.743-2.459,2.771,2.771,0,0,1,.981-.627,2.145,2.145,0,0,1,1.417,0,2.589,2.589,0,0,1,.586.279,3.965,3.965,0,0,1,.463.354,4.317,4.317,0,0,1,.736.851,8.509,8.509,0,0,1,.49.892l.184.415a2.546,2.546,0,0,1,.211.681,1.553,1.553,0,0,1-.177,1,1.893,1.893,0,0,1-.538.6,3.7,3.7,0,0,1-.926.456,12.415,12.415,0,0,1-2.84.627C283.951,345.889,282.964,345.767,282.909,345.515Z" transform="translate(-204.289 -172.474)" fill="#e0e0e0"/><rect width="18.681" height="5.312" transform="translate(85.529 177.742) rotate(-179.55)" fill="#e0e0e0"/><rect width="16.883" height="5.312" transform="translate(90.61 177.777) rotate(-179.55)" fill="#ebebeb"/><path d="M292.061,347.434l-.116,5.333-1.975-.041.143-5.305Z" transform="translate(-206.603 -174.999)" fill="#fafafa"/><path d="M271.4,347.3l-.191,5.285-2.166-.014.116-5.319Z" transform="translate(-199.927 -174.945)" fill="#fafafa"/></g><g transform="translate(282.229 289.098)"><path d="M419.879,397.8a8.452,8.452,0,0,1,4.379,4.958,14.861,14.861,0,0,1,.579,6.722c-.49,4.359-2.969,8.758-5.632,12.259-3.671-3.2-4.515-8.792-4.767-11.653-.4-4.522,1.635-12.94,5.448-12.259" transform="translate(-403.367 -397.793)" fill="#1e55a2"/><path d="M427.654,439.238a7.206,7.206,0,0,1,2.329-6.851,9.535,9.535,0,0,1,7.056-2.207,4.094,4.094,0,0,1,3.1,1.362,3.078,3.078,0,0,1,.048,3.126,6.218,6.218,0,0,1-2.309,2.275c-3.18,2-6.627,3.344-10.216,2.268" transform="translate(-407.553 -408.109)" fill="#1e55a2"/><path d="M420.81,454.621a5.2,5.2,0,0,1,.129-.892c.116-.633.266-1.444.443-2.424a25.329,25.329,0,0,1,2.5-7.73,15.494,15.494,0,0,1,5.551-5.9,10.582,10.582,0,0,1,2.261-1,5.766,5.766,0,0,1,.681-.17c.177-.041.232-.041.232,0a14.35,14.35,0,0,0-8.418,7.246,27.152,27.152,0,0,0-2.554,7.628c-.225,1.015-.409,1.839-.545,2.4a5.137,5.137,0,0,1-.279.845Z" transform="translate(-405.415 -410.131)" fill="#263238"/><path d="M420.914,407.42a1.666,1.666,0,0,1,.048.395c0,.286.041.681.068,1.124.048.974.109,2.384.163,4.134.109,3.494.2,8.322.177,13.621s-.15,10.161-.3,13.655c-.068,1.75-.136,3.16-.2,4.134-.034.463-.055.831-.075,1.124h0c.048-.388-.068.252-.068,0v-1.131c0-1.015.054-2.418.1-4.134.089-3.494.184-8.316.211-13.621s-.034-10.154-.089-13.621c0-1.716-.048-3.126-.068-4.141v-1.124A2.977,2.977,0,0,1,420.914,407.42Z" transform="translate(-405.39 -400.863)" fill="#263238"/><path d="M411.959,441.324a16.876,16.876,0,0,0-9.208-12.347c-1.226-.586-2.826-.974-3.834-.061s-.79,2.554-.293,3.827a14.411,14.411,0,0,0,13.246,8.942" transform="translate(-398.206 -407.546)" fill="#1e55a2"/><path d="M405.75,435.33a4.216,4.216,0,0,1,.783.341,7.755,7.755,0,0,1,.879.47,12.019,12.019,0,0,1,1.117.681,14.113,14.113,0,0,1,1.287.967,15.934,15.934,0,0,1,1.362,1.239,18.689,18.689,0,0,1,2.595,3.33,18.387,18.387,0,0,1,1.7,3.862,15.482,15.482,0,0,1,.436,1.791,13.547,13.547,0,0,1,.218,1.587c.068.49.041.933.061,1.321a7.492,7.492,0,0,1,0,1,4.551,4.551,0,0,1-.1.844c-.075,0,.048-1.212-.163-3.14a15.157,15.157,0,0,0-.252-1.566c-.1-.559-.279-1.144-.456-1.757a18.71,18.71,0,0,0-1.7-3.78,19.2,19.2,0,0,0-2.527-3.289,17.03,17.03,0,0,0-1.321-1.246c-.422-.381-.858-.681-1.246-.981C406.826,435.9,405.716,435.391,405.75,435.33Z" transform="translate(-400.612 -409.765)" fill="#263238"/></g></g></svg>