<svg xmlns="http://www.w3.org/2000/svg" width="20.903" height="22.804" viewBox="0 0 20.903 22.804">
  <g id="bag-09" transform="translate(-0.452 -1.402)">
    <path id="Path_7920" data-name="Path 7920" d="M21.9,21.568,20,6.556a1.01,1.01,0,0,0-.95-.855H16.2v-.95a4.751,4.751,0,1,0-9.5,0V5.7H3.85a1.01,1.01,0,0,0-.95.855L1,21.758a1.79,1.79,0,0,0,.19.76,1.079,1.079,0,0,0,.76.285h19a.9.9,0,0,0,.95-.95ZM8.6,4.751a2.85,2.85,0,0,1,5.7,0V5.7H8.6Z" transform="translate(-0.548 1.402)" fill="#fff"/>
  </g>
</svg>
