<svg xmlns="http://www.w3.org/2000/svg" width="266.375" height="115.382" viewBox="0 0 266.375 115.382"><g transform="translate(1647 -627)"><g transform="translate(-1647 627)"><g transform="translate(28.113 8.28)"><circle cx="53.551" cy="53.551" r="53.551" fill="#eaeaea" style="mix-blend-mode:multiply;isolation:isolate"/><g transform="translate(56.839 36.04)"><text transform="translate(1.418 47.338)" fill="#f99100" font-size="9" font-family="SegoeUI, Segoe UI" letter-spacing="0.32em"><tspan x="0" y="0">SUPERMARKET</tspan></text><path d="M313.734,241.764c.653,7.332-5.359,10.806-14.01,10.812l-17.445.013,3.6-34.219,16.066-.011c7.178-.005,11.419,2.778,11.868,7.812a8.254,8.254,0,0,1-5.162,8.753A7.738,7.738,0,0,1,313.734,241.764Zm-7.662-.093c-.227-2.541-2.262-3.517-5.3-3.515l-9.317.007-.863,8.456,9.079-.006C303.9,246.61,306.364,244.946,306.072,241.671ZM292.88,224.328l-.85,8.066,7.843-.006c3.993,0,6.269-1.667,5.985-4.843-.2-2.248-2.094-3.225-5.183-3.223Z" transform="translate(-282.279 -218.256)" fill="#1e55a2"/><path d="M375.459,241.965l6.74,10.554-8.128.006-6.083-9.575-6.56,0-1,9.58-7.748.006,3.6-34.218,13.547-.01c8.27-.006,13.372,3.9,13.969,10.6C384.377,235.36,381.23,240.055,375.459,241.965Zm.613-12.318c-.3-3.323-2.717-4.886-6.663-4.883l-6.084,0-1.27,11.879,6.559,0C373.7,236.639,376.477,234.193,376.071,229.647Z" transform="translate(-316.317 -218.233)" fill="#1e55a2"/><path d="M439.245,245.14l-15.5.011-3.672,7.334-8.223.006,18.482-34.228,7.6-.006,11.227,34.207-7.7.006Zm-1.82-6.012-3.981-13.195-6.666,13.2Z" transform="translate(-344.926 -218.206)" fill="#1e55a2"/><path d="M524.933,218.189l-3.6,34.219-6.323,0-14.315-21.4-2.274,21.411-7.606.005,3.6-34.219,6.37,0,14.319,21.448,2.222-21.46Z" transform="translate(-383.1 -218.173)" fill="#1e55a2"/><path d="M568.776,218.169l13.927-.01c10.267-.007,16.891,5.511,17.671,14.26,1.076,12.073-6.635,19.948-18.946,19.957l-16.257.012Zm12.31,27.706c7.985-.005,12.195-5.581,11.532-13.01-.453-5.083-3.917-8.209-10.192-8.2l-6.607,0-2.244,21.216Z" transform="translate(-419.051 -218.159)" fill="#1e55a2"/></g></g><g transform="translate(0 0)"><path d="M193.335,132.787c-10.578-2.406-21.715,5.438-27.3,18.174l5.22,1.187c4.261-9.718,12.758-15.7,20.829-13.867s13.143,10.908,12.782,21.513l5.22,1.188C210.56,147.083,203.914,135.193,193.335,132.787Z" transform="translate(-141.127 -132.354)" fill="#1e55a2"/><path d="M158.275,198.767l-22.133-14.179L155.4,219.5l29.871-23.259,5.615-4.375-4.7,42.205a6.421,6.421,0,0,1-7.991,5.682L122.96,227.181a6.423,6.423,0,0,1-4.747-8.579l.077-.217,19.08-54.534,5.811,1.322,5.227,1.188,33.161,7.546,5.227,1.188.806.186,5,1.136-.677,6.069-5.418,2.624Z" transform="translate(-117.811 -147.582)" fill="#1e55a2"/><path d="M185.273,222.455l5.615-4.375-4.7,42.205a6.421,6.421,0,0,1-7.991,5.682L122.96,253.4a6.423,6.423,0,0,1-4.747-8.579l.077-.217c.165.052.331.1.506.145l55.237,12.567a6.423,6.423,0,0,0,7.991-5.687Z" transform="translate(-117.811 -173.801)" fill="#406497" opacity="0.3" style="mix-blend-mode:multiply;isolation:isolate"/><path d="M256.9,187.116l-.677,6.069-5.418,2.624,1.1-9.829Z" transform="translate(-182.113 -158.281)" fill="#406497" opacity="0.3" style="mix-blend-mode:multiply;isolation:isolate"/></g><path d="M161.643,200.758l15.433,27.969,52.575-40.949-50.292,24.331Z" transform="translate(-139.003 -159.151)" fill="#f99100"/></g><path d="M193.335,132.787c-10.578-2.406-21.715,5.438-27.3,18.174l5.22,1.187c4.261-9.718,12.758-15.7,20.829-13.867s13.143,10.908,12.782,21.513l5.22,1.188C210.56,147.083,203.914,135.193,193.335,132.787Z" transform="translate(-1788.127 494.646)" fill="#406497" opacity="0.3" style="mix-blend-mode:multiply;isolation:isolate"/></g></svg>