<svg id="buy" xmlns="http://www.w3.org/2000/svg" width="24.193" height="24.193" viewBox="0 0 24.193 24.193">
  <path id="Path_7964" data-name="Path 7964" d="M210.138,23.121a1.071,1.071,0,0,0-.369,1.754l2.8,2.8a1.918,1.918,0,0,0,2.715,0l2.8-2.8a1.07,1.07,0,0,0-.757-1.826H216.15c0-.369,0-4.167,0-4.536A1.514,1.514,0,0,0,214.637,17h-1.416a1.513,1.513,0,0,0-1.512,1.512c0,3.227,0-2.074,0,4.537C210.46,23.048,210.387,23.024,210.138,23.121Z" transform="translate(-199.559 -16.197)" fill="#fff"/>
  <path id="Path_7965" data-name="Path 7965" d="M23.485,18.98c-19.642,0-18.766,0-18.768-.007a13.283,13.283,0,0,1-.193-1.616c9.425-.049-13.112,0,17.392,0a2.186,2.186,0,0,0,2.229-2.24v-9.6a1.694,1.694,0,0,0-1.688-1.691l-4.45-.008V5.445A2.489,2.489,0,0,1,19.533,9.68l-2.8,2.8a3.334,3.334,0,0,1-4.72,0l-2.8-2.8a2.489,2.489,0,0,1,1.525-4.235V3.805L5.856,3.8,5.384,1.2A1.458,1.458,0,0,0,3.948,0H.709a.709.709,0,1,0,0,1.418h3.24c.155,0,1.64,9.753,2.383,14.513l-1.814.009a1.425,1.425,0,0,0-1.409,1.6l.2,1.607A1.427,1.427,0,0,0,4.724,20.4H5.982a2.606,2.606,0,1,0,4.637,0H17.37a2.606,2.606,0,1,0,4.637,0h1.477a.709.709,0,1,0,0-1.418Z" fill="#fff"/>
</svg>
