<svg xmlns="http://www.w3.org/2000/svg" width="33.841" height="30.566" viewBox="0 0 33.841 30.566">
  <g id="chat-46" transform="translate(-1 -3)">
    <path id="Path_7916" data-name="Path 7916" d="M42.372,17H38.005V29.008A1.091,1.091,0,0,1,36.913,30.1H24.975l-4.99,4.367h10.75l7.5,5.356a.539.539,0,0,0,.317.1.556.556,0,0,0,.25-.06.546.546,0,0,0,.3-.486V34.466h3.275a1.091,1.091,0,0,0,1.092-1.092V18.092A1.091,1.091,0,0,0,42.372,17Z" transform="translate(-8.623 -6.359)" fill="#fff"/>
    <path id="Path_7917" data-name="Path 7917" d="M27.2,3H2.092A1.091,1.091,0,0,0,1,4.092V21.558a1.091,1.091,0,0,0,1.092,1.092H6.458v7.1a.544.544,0,0,0,.32.5A.536.536,0,0,0,7,30.291a.546.546,0,0,0,.359-.135l8.579-7.507H27.2a1.091,1.091,0,0,0,1.092-1.092V4.092A1.091,1.091,0,0,0,27.2,3Z" transform="translate(0 0)" fill="#f99100"/>
  </g>
</svg>
