<svg xmlns="http://www.w3.org/2000/svg" width="27.536" height="27.535" viewBox="0 0 27.536 27.535">
  <path id="Exclusion_2" data-name="Exclusion 2" d="M13.768,27.535a13.768,13.768,0,0,1-9.736-23.5A13.768,13.768,0,0,1,23.5,23.5,13.678,13.678,0,0,1,13.768,27.535Zm-.357-9.507a2.065,2.065,0,0,0-2.134,2.182,2.086,2.086,0,0,0,2.134,2.18,2.075,2.075,0,0,0,2.157-2.18A2.081,2.081,0,0,0,13.411,18.028ZM12.93,8.556c1.13.024,1.752.534,1.752,1.438,0,.764-.551,1.493-1.393,2.518a5.185,5.185,0,0,0-1.414,3.741l.023.623h3.188v-.431a4.2,4.2,0,0,1,1.223-3l.094-.1A5.833,5.833,0,0,0,18.37,9.419c0-1.725-1.212-3.74-4.627-3.74a8.265,8.265,0,0,0-4,.982l.816,2.614A4.519,4.519,0,0,1,12.93,8.556Z" fill="#fff"/>
</svg>
