<svg xmlns="http://www.w3.org/2000/svg" width="21.766" height="21.766" viewBox="0 0 21.766 21.766">
  <g id="like-2" transform="translate(-3 -3)">
    <path id="Path_7924" data-name="Path 7924" d="M26.993,11.292H22.328V8.7a7,7,0,0,0-2.85-5.493A2.172,2.172,0,0,0,18.7,3a1.559,1.559,0,0,0-1.555,1.555V8.493L13,13.468V23l1.607.777a9.341,9.341,0,0,0,4.094.985h7.255a2.588,2.588,0,0,0,2.591-2.539l1.036-8.24v-.052A2.578,2.578,0,0,0,26.993,11.292Z" transform="translate(-4.818)" fill="#fff"/>
    <path id="Path_7925" data-name="Path 7925" d="M6.628,21H3.518A.49.49,0,0,0,3,21.518v11.4a.49.49,0,0,0,.518.518H6.628a.49.49,0,0,0,.518-.518v-11.4A.49.49,0,0,0,6.628,21Z" transform="translate(0 -8.672)" fill="#fff"/>
  </g>
</svg>
