<svg xmlns="http://www.w3.org/2000/svg" xmlns:xlink="http://www.w3.org/1999/xlink" width="14" height="14" viewBox="0 0 14 14"><defs><clipPath id="a"><rect width="14" height="14" fill="none"/></clipPath></defs><g clip-path="url(#a)"><rect width="14" height="14" fill="none"/><path d="M6,7A1.75,1.75,0,1,1,4.286,8.75,1.738,1.738,0,0,1,6,7ZM6,1.75A1.738,1.738,0,0,0,4.286,3.5H7.714A1.738,1.738,0,0,0,6,1.75ZM10.286,14H1.714A1.738,1.738,0,0,1,0,12.25v-7A1.738,1.738,0,0,1,1.714,3.5h.857A3.475,3.475,0,0,1,6,0,3.475,3.475,0,0,1,9.429,3.5h.857A1.738,1.738,0,0,1,12,5.25v7A1.738,1.738,0,0,1,10.286,14Z" transform="translate(1)" fill="#1e55a2" fill-rule="evenodd"/></g></svg>