<svg id="Group_6131" data-name="Group 6131" xmlns="http://www.w3.org/2000/svg" width="21.883" height="20.599" viewBox="0 0 21.883 20.599">
  <g id="Group_5766" data-name="Group 5766">
    <path id="Path_6735" data-name="Path 6735" d="M-3508.76-134.189h-1.45v-5.191h-9.39c.149.089.251.152.355.211,1.093.619,2.184,1.242,3.281,1.852a.87.87,0,0,1,.494.838q-.01,5.467,0,10.933v.285h5.254v-4.019h1.459c0,.087.012.168.012.25q0,2.2,0,4.392a.753.753,0,0,1-.867.86h-5.859v.263q0,1.2,0,2.4a.745.745,0,0,1-1.192.7c-1.93-1.092-3.848-2.212-5.8-3.264a1.278,1.278,0,0,1-.751-1.315c.021-5.008.012-10.016.012-15.025a.759.759,0,0,1,.857-.852h12.752a.747.747,0,0,1,.847.834q0,2.832,0,5.663C-3508.747-134.315-3508.755-134.261-3508.76-134.189Z" transform="translate(3523.217 140.865)" fill="#fff"/>
    <path id="Path_6736" data-name="Path 6736" d="M-3279.144-11.377h-3.59c-.291,0-.583,0-.874,0a1.192,1.192,0,0,1-1.214-1.179,1.181,1.181,0,0,1,1.212-1.179c1.227-.009,2.456,0,3.684,0h.781v-.271c0-.61,0-1.219,0-1.828a.534.534,0,0,1,.27-.535.549.549,0,0,1,.615.09q2.238,1.63,4.479,3.254a.52.52,0,0,1,0,.944q-2.226,1.621-4.457,3.239a.553.553,0,0,1-.612.114.564.564,0,0,1-.292-.577C-3279.142-9.986-3279.144-10.665-3279.144-11.377Z" transform="translate(3295.364 21.773)" fill="#fff"/>
  </g>
</svg>
