<svg id="money" xmlns="http://www.w3.org/2000/svg" width="26.967" height="26.967" viewBox="0 0 26.967 26.967">
  <path id="Path_7926" data-name="Path 7926" d="M271,275.721c.908-.223,1.58-.808,1.58-1.48s-.672-1.257-1.58-1.48Z" transform="translate(-256.727 -258.396)" fill="#fff"/>
  <path id="Path_7927" data-name="Path 7927" d="M99.69,91a8.69,8.69,0,1,0,8.69,8.69A8.7,8.7,0,0,0,99.69,91Zm3.95,11.053a3.437,3.437,0,0,1-3.16,3.1v.862a.79.79,0,0,1-1.58,0v-.862a3.437,3.437,0,0,1-3.16-3.1.79.79,0,1,1,1.58,0c0,.672.672,1.257,1.58,1.48v-3.124a3.1,3.1,0,1,1,0-6.192v-.854a.79.79,0,0,1,1.58,0v.854a3.437,3.437,0,0,1,3.16,3.1.79.79,0,0,1-1.58,0c0-.672-.672-1.257-1.58-1.48v3.124A3.437,3.437,0,0,1,103.641,102.053Z" transform="translate(-86.207 -86.207)" fill="#fff"/>
  <path id="Path_7928" data-name="Path 7928" d="M212.58,182.761c-.908.223-1.58.808-1.58,1.48s.672,1.257,1.58,1.48Z" transform="translate(-199.887 -173.135)" fill="#fff"/>
  <path id="Path_7929" data-name="Path 7929" d="M13.483,0A13.483,13.483,0,1,0,26.967,13.483,13.536,13.536,0,0,0,13.483,0Zm0,23.754a10.27,10.27,0,1,1,10.27-10.27A10.282,10.282,0,0,1,13.483,23.754Z" fill="#fff"/>
</svg>
