<svg xmlns="http://www.w3.org/2000/svg" width="26.488" height="25.33" viewBox="0 0 26.488 25.33">
  <g id="multiple-11" transform="translate(0 -0.33)">
    <circle id="Ellipse_209" data-name="Ellipse 209" cx="2.5" cy="2.5" r="2.5" transform="translate(2.244 2.33)" fill="#fff"/>
    <path id="Path_7921" data-name="Path 7921" d="M5.794,22.589V14.311a5.76,5.76,0,0,1,1.035-3.3c-.069,0-.137-.015-.207-.015H3.311A3.314,3.314,0,0,0,0,14.311v4.967H1.656v5.794H7.45V22.589Z" transform="translate(0 -1.895)" fill="#fff"/>
    <circle id="Ellipse_210" data-name="Ellipse 210" cx="2.5" cy="2.5" r="2.5" transform="translate(19.244 2.33)" fill="#fff"/>
    <path id="Path_7922" data-name="Path 7922" d="M24.656,22.589V14.311a5.76,5.76,0,0,0-1.035-3.3c.069,0,.137-.015.207-.015h3.311a3.314,3.314,0,0,1,3.311,3.311v4.967H28.794v5.794H23V22.589Z" transform="translate(-3.961 -1.895)" fill="#fff"/>
    <path id="Path_7923" data-name="Path 7923" d="M16.45,10H13.139A4.144,4.144,0,0,0,9,14.139v6.622h2.483v6.622h6.622V20.761h2.483V14.139A4.144,4.144,0,0,0,16.45,10Z" transform="translate(-1.55 -1.722)" fill="#fff"/>
    <circle id="Ellipse_211" data-name="Ellipse 211" cx="3" cy="3" r="3" transform="translate(10.244 0.33)" fill="#fff"/>
  </g>
</svg>
