<svg xmlns="http://www.w3.org/2000/svg" width="28.042" height="28.043" viewBox="0 0 28.042 28.043"><path d="M600.544,687.479A14.021,14.021,0,1,0,614.565,701.5,14.022,14.022,0,0,0,600.544,687.479Zm6.4,10.932c.006.138.009.277.009.416a9.094,9.094,0,0,1-9.157,9.157h0a9.113,9.113,0,0,1-4.933-1.446,6.5,6.5,0,0,0,4.765-1.333,3.219,3.219,0,0,1-3.006-2.235,3.161,3.161,0,0,0,.6.058,3.208,3.208,0,0,0,.849-.113,3.22,3.22,0,0,1-2.582-3.155v-.041a3.189,3.189,0,0,0,1.457.4,3.22,3.22,0,0,1-1-4.3,9.136,9.136,0,0,0,6.634,3.362,3.161,3.161,0,0,1-.084-.733,3.22,3.22,0,0,1,5.568-2.2,6.456,6.456,0,0,0,2.043-.782,3.22,3.22,0,0,1-1.415,1.78,6.394,6.394,0,0,0,1.848-.506A6.554,6.554,0,0,1,606.946,698.411Z" transform="translate(-586.523 -687.479)" fill="#02acf3"/></svg>